<svg width="145" height="148" viewBox="0 0 145 148" fill="none" xmlns="http://www.w3.org/2000/svg">
<path d="M29.1658 44.8409C29.4484 44.8714 29.5334 44.6391 29.6544 44.4645C31.0422 42.4293 32.5718 40.4945 34.2318 38.6744C34.3174 38.6043 34.3849 38.5146 34.4286 38.413C34.4724 38.3114 34.4912 38.2008 34.4835 38.0904C35.5323 37.7067 36.0617 36.7429 36.8021 36.0148C39.5311 33.4256 42.5345 31.1419 45.7589 29.2044C45.9476 29.0923 46.1499 29.003 46.3453 28.9034C46.7721 28.6494 47.1993 28.3952 47.6268 28.1408C51.6548 25.9178 55.9752 24.2718 60.4613 23.2512C60.8305 23.1908 61.3271 23.4894 61.5028 22.8824C63.0791 22.6572 64.655 22.4295 66.232 22.2092C66.5583 22.1636 66.8884 22.1457 67.2161 22.1152C67.2878 22.131 67.3621 22.1299 67.4332 22.112C67.5044 22.094 67.5703 22.0597 67.6259 22.0118C67.625 21.9625 67.6491 21.9401 67.6981 21.9444C69.1881 21.9286 70.6782 21.9126 72.1684 21.8965L74.9959 21.9474L76.5606 21.953C78.4292 22.2684 80.2977 22.5838 82.1661 22.8992C82.2109 22.8665 82.2558 22.8337 82.3008 22.801L82.3105 22.7841C82.6279 22.9222 82.9193 23.1396 83.2931 23.1054C87.6509 24.0945 91.8599 25.6522 95.8117 27.7384C95.9821 27.8294 96.1465 27.9316 96.3133 28.0284C96.651 28.29 96.9252 28.6771 97.4358 28.6003C100.812 30.5424 103.958 32.8584 106.816 35.5047C106.995 35.6733 107.167 35.8671 107.451 35.8446C107.958 36.7709 108.738 37.4405 109.552 38.0777C110.765 39.5666 111.969 41.0629 113.193 42.5414C113.802 43.2763 114.184 44.1864 114.95 44.7977C115.168 45.0391 114.964 45.5584 115.48 45.6032C115.424 45.9133 115.636 46.108 115.78 46.3415C118.325 50.4327 120.277 54.8641 121.578 59.5034C121.705 60.0022 121.833 60.5012 121.96 61.0003C122.621 63.119 122.931 65.3074 123.239 67.495C123.343 68.2339 123.395 68.9802 123.471 69.7225C123.383 71.169 123.477 72.6208 123.75 74.044C123.503 74.981 123.691 75.9411 123.599 76.8864C123.469 77.2825 123.385 77.6772 123.633 78.0625C123.4 79.6434 123.168 81.2242 122.935 82.805C122.791 83.815 122.576 84.8137 122.292 85.7937C122.062 86.3382 122.273 87.0201 121.77 87.4812C121.638 89.2092 120.949 90.7835 120.376 92.3826C119.383 95.1158 118.148 97.7548 116.686 100.268C116.564 100.48 116.411 100.673 116.272 100.874C116.373 101.333 115.486 101.269 115.769 101.824C114.228 104.301 112.487 106.648 110.562 108.839C110.384 109.04 110.147 109.219 110.19 109.541C109.75 109.771 109.354 110.077 109.02 110.445C108.463 111.037 107.872 111.596 107.296 112.169C105.267 114.156 103.057 115.948 100.695 117.523C100.645 118.095 99.804 117.587 99.7808 118.194C97.5476 119.468 95.3394 120.789 92.9739 121.816C91.0547 122.681 89.0789 123.415 87.0602 124.012C87.0171 124.017 86.9773 124.037 86.9482 124.069C86.9526 124.078 86.955 124.088 86.9551 124.098C86.9552 124.108 86.9531 124.118 86.9489 124.127C86.9447 124.136 86.9386 124.144 86.9308 124.15C86.9231 124.156 86.9141 124.161 86.9044 124.163C86.4814 124.167 86.0626 124.249 85.6688 124.404C82.8895 125.217 80.0374 125.758 77.1532 126.017C76.8494 126.007 76.5472 126.064 76.2679 126.184C75.4258 126.184 74.5828 126.165 73.7415 126.193C73.1429 126.214 72.5236 126.057 71.9491 126.356C70.96 126.301 69.9708 126.246 68.9816 126.191C68.5192 126.119 68.0479 126.128 67.5883 126.216C64.9193 125.763 62.2312 125.411 59.6054 124.726C59.2089 124.623 58.8138 124.514 58.4189 124.409C57.9878 124.129 57.4612 124.197 56.9997 124.025C52.7077 122.645 48.6032 120.739 44.7802 118.35C44.6359 118.27 44.4868 118.199 44.3339 118.137C44.075 117.765 43.6659 117.588 43.3074 117.345C43.1875 117.255 43.0677 117.166 42.948 117.077L42.8877 117.04C41.389 116.043 39.9625 114.941 38.6192 113.742C37.6218 112.79 36.6243 111.837 35.6264 110.885C33.5552 108.95 31.8179 106.731 30.1715 104.438C29.5747 103.607 29.0373 102.733 28.4731 101.879C28.2207 101.44 27.9683 101.001 27.7156 100.562C25.279 96.4959 23.4661 92.087 22.3376 87.4827C22.3389 87.4677 22.3368 87.4525 22.3315 87.4384C22.3261 87.4242 22.3176 87.4115 22.3067 87.4011C22.2708 87.356 22.2349 87.311 22.1991 87.266C22.2714 86.8628 21.9866 86.579 21.8571 86.2432L21.8743 86.2283C21.904 86.2183 21.9306 86.2009 21.9517 86.1777C21.9728 86.1546 21.9877 86.1265 21.995 86.096C22.0023 86.0655 22.0018 86.0337 21.9935 86.0035C21.9851 85.9733 21.9693 85.9457 21.9474 85.9233C21.3584 83.8209 21.105 81.6603 20.828 79.5034C20.7754 79.094 20.6949 78.6882 20.6275 78.2809C20.8008 77.8221 20.8578 77.3275 20.7936 76.8413C20.6086 75.8829 20.5155 74.9091 20.5156 73.933L20.5887 73.6944L20.6341 73.6467L20.589 73.5998L20.5981 73.1719C20.6859 72.822 20.7004 72.4577 20.6406 72.102L20.6635 71.2236C20.9076 70.736 20.7594 70.2505 20.6555 69.7648C21.022 66.6729 21.5706 63.612 22.223 60.5688C22.7219 60.31 22.4118 59.8379 22.5117 59.4738C23.0833 57.8955 23.6295 56.3074 24.2318 54.7409C25.4361 51.6547 26.9378 48.693 28.7156 45.8976C29.0002 45.6027 29.2631 45.2985 29.1658 44.8409ZM65.9352 115.84C66.2777 115.844 66.6203 115.848 66.9628 115.853C68.5767 116.313 70.2445 116.205 71.8912 116.32C73.9875 116.154 76.1128 116.351 78.1799 115.818C81.5791 115.338 84.9017 114.419 88.0644 113.084C92.2798 111.309 96.1805 108.863 99.6158 105.843C99.8548 105.622 100.108 105.414 100.33 105.177C101.411 104.024 102.636 103.008 103.595 101.74C107.738 96.9027 110.738 91.1946 112.372 85.0392C112.81 83.4124 113.069 81.7552 113.412 80.1125C113.367 79.7511 113.602 79.3921 113.422 79.0295C113.738 77.4076 113.847 75.752 113.746 74.1026C113.859 71.9166 113.714 69.7249 113.312 67.573C112.362 61.3981 110.061 55.5088 106.574 50.3254C105.541 48.798 104.534 47.2366 103.116 46.0109C102.313 44.6847 101.051 43.7836 100.007 42.6811C99.8326 42.4973 99.537 42.5864 99.2939 42.5766C99.5599 42.263 99.3256 42.1056 99.107 41.9171C95.8362 39.0984 92.147 36.8054 88.1716 35.1203C84.9598 33.7702 81.5952 32.8171 78.1525 32.2819C77.7814 32.3169 77.347 32.0799 77.0732 32.533C76.9768 32.303 76.8861 32.1083 76.5666 32.0874C75.0882 31.991 73.6144 31.7905 72.1277 31.9304C71.1777 31.9313 70.2274 31.9481 69.2778 31.9293C67.989 31.9039 66.7439 32.2092 65.4822 32.3906C58.8227 33.4745 52.5305 36.1748 47.1567 40.2549C46.2238 40.9625 45.2091 41.5937 44.51 42.5751C44.2779 42.6262 43.9812 42.6016 43.8541 42.8209C43.4244 43.5625 42.7562 44.0762 42.184 44.6841C41.7282 45.1683 41.059 45.5145 40.976 46.2864C40.8212 46.3069 40.6666 46.2579 40.5364 46.4319C39.9732 47.1843 39.3754 47.9109 38.8151 48.6654C34.6549 54.2804 31.9207 60.8218 30.8477 67.7272C30.7258 68.1441 30.7262 68.5872 30.8488 69.0039C30.6262 69.2472 30.6541 69.5563 30.6279 69.8507C30.5561 70.6604 30.4851 71.4701 30.415 72.2799C30.2645 74.9126 30.3052 77.5328 30.9229 80.1157C30.8921 80.221 30.8769 80.3302 30.8776 80.4399C32.0121 87.5783 34.677 94.0743 39.0746 99.8304C39.8568 100.854 40.563 101.959 41.6462 102.72C42.6105 104.405 44.2418 105.424 45.6156 106.7C51.4362 111.53 58.4593 114.689 65.9352 115.84ZM72.3406 25.2675C70.6131 25.4042 69.0892 25.4175 67.5682 25.5706C59.6067 26.3355 51.9762 29.1373 45.4115 33.7062C37.2665 39.3336 31.473 46.8484 27.7481 55.9903C27.3927 56.8628 27.4109 56.7608 28.3623 56.8888C29.7364 57.0735 30.3378 56.5427 30.8989 55.2678C38.5774 37.8216 56.0152 26.8599 74.9315 28.0825C81.0969 28.4544 87.1119 30.1374 92.5751 33.0192C102.065 38.0202 108.984 45.4678 113.305 55.2691C113.896 56.6093 114.557 57.0344 115.923 56.8984C116.661 56.825 116.748 56.6896 116.487 56.0416C114.737 51.5685 112.328 47.3824 109.339 43.6226C99.7668 31.7876 87.3419 25.712 72.3406 25.2675ZM40.6199 113.493C40.749 112.219 41.0395 111.048 40.8204 109.807C42.334 110.349 43.101 110.219 43.6287 109.374C44.1801 108.492 43.9793 107.635 42.9273 106.587C42.1831 105.846 41.3878 105.156 40.6497 104.409C40.308 104.063 40.1288 104.094 39.8102 104.454C38.5817 105.842 37.3282 107.207 36.0497 108.55C35.6894 108.928 35.8392 109.083 36.1159 109.404C36.6048 109.972 36.9639 109.97 37.3795 109.356C37.5737 109.085 37.7992 108.839 38.0513 108.622C38.2802 108.414 38.4061 107.914 38.7777 108.078C38.9861 108.163 39.1663 108.305 39.2973 108.488C39.4283 108.671 39.5048 108.888 39.518 109.113C39.565 109.748 39.5328 110.386 39.4222 111.013C39.1613 112.125 39.5462 112.874 40.6199 113.493ZM85.1384 119.951C85.2968 119.845 85.363 119.797 85.433 119.755C86.4712 119.131 86.8167 118.41 86.5075 117.511C86.175 116.543 85.4498 116.174 84.2438 116.325C83.0014 116.48 81.8091 116.856 80.5917 117.121C80.3132 117.182 80.1625 117.241 80.2521 117.607C80.7193 119.518 81.1591 121.436 81.5878 123.356C81.6601 123.679 81.7879 123.739 82.0987 123.696C83.0422 123.566 83.1354 123.46 82.9402 122.56C82.8757 122.263 82.7782 121.972 82.7238 121.673C82.6641 121.345 82.3404 120.949 82.7186 120.697C82.9152 120.559 83.1493 120.485 83.3894 120.484C83.6296 120.483 83.8642 120.556 84.0619 120.692C84.5795 121.015 85.0565 121.399 85.4825 121.836C86.2498 122.707 87.073 122.762 88.1049 122.166C87.171 121.361 86.3995 120.411 85.1384 119.951ZM114.214 63.5799C114.199 64.3405 114.336 65.0963 114.616 65.8037C115.268 67.4012 116.645 68.1765 118.337 67.8993C119.116 67.8015 119.834 67.427 120.361 66.844C120.888 66.261 121.187 65.5083 121.205 64.7229C121.258 63.6062 120.959 62.5011 120.35 61.5637C119.653 60.4261 119.503 60.3632 118.213 60.6551C116.753 60.9853 116.754 60.985 117.096 62.4108C117.226 62.8626 117.328 63.3225 117.399 63.7876C117.447 64.2462 117.691 64.1551 117.968 64.0823C118.249 64.0082 118.628 64.0322 118.491 63.5454C118.431 63.3326 118.379 63.1169 118.336 62.9C118.286 62.6489 118.064 62.3517 118.443 62.1814C118.519 62.1338 118.604 62.1021 118.693 62.0881C118.782 62.0742 118.873 62.0782 118.96 62.1001C119.047 62.122 119.129 62.1613 119.2 62.2155C119.272 62.2697 119.332 62.3379 119.377 62.4158C119.999 63.2827 120.34 64.2063 119.827 65.205C119.324 66.1822 118.368 66.3776 117.35 66.4145C115.653 66.4759 114.955 64.1463 115.658 63.3132C116.131 62.7539 115.953 62.3645 115.736 61.8513C115.563 61.4411 115.373 61.4263 115.072 61.7009C114.801 61.9325 114.583 62.2208 114.435 62.5454C114.287 62.87 114.212 63.2231 114.214 63.5799ZM53.7398 120.712C54.4003 120.919 54.8343 120.503 55.064 119.716C55.1857 119.348 55.3412 118.991 55.5284 118.651C55.7102 118.293 55.7175 118.066 55.2657 117.899C54.5662 117.64 53.8858 117.325 53.2117 117.004C52.8934 116.852 52.7111 116.851 52.5959 117.233C52.4998 117.551 52.2733 117.857 52.7839 118.029C53.0186 118.108 53.2385 118.231 53.4656 118.333C53.6705 118.425 53.9135 118.514 53.7999 118.803C53.705 119.044 53.6692 119.373 53.291 119.37C52.9867 119.383 52.6818 119.375 52.3785 119.347C51.0421 119.153 50.2576 118.156 50.4458 116.919C50.6867 115.336 51.6439 114.46 52.9632 114.672C53.8049 114.807 54.4718 115.2 54.6821 116.123C54.7593 116.461 55.738 116.984 56.0038 116.803C56.4146 116.523 56.2005 116.078 56.0934 115.749C55.7687 114.752 54.9585 114.234 54.0526 113.81C52.1945 112.939 50.3415 113.445 49.4612 115.096C48.4379 117.015 48.9297 118.866 50.7685 119.95C51.669 120.475 52.6979 120.739 53.7398 120.712ZM117.944 73.678C118.096 73.3484 118.37 73.2482 118.583 73.0871C119.556 72.3527 120.513 71.5929 121.525 70.9165C122.216 70.4542 121.986 69.812 121.896 69.2707C121.82 68.8139 121.283 69.0765 120.968 69.0804C119.277 69.1016 117.586 69.1854 115.894 69.2056C115.407 69.2114 115.307 69.3814 115.291 69.8367C115.269 70.4741 115.496 70.6714 116.116 70.5917C116.64 70.5344 117.169 70.5208 117.695 70.5511C118.299 70.5751 118.919 70.4294 119.613 70.6511C118.278 71.6422 117.048 72.5869 115.783 73.4812C115.167 73.9164 115.436 74.5005 115.495 74.9908C115.548 75.4251 116.046 75.2066 116.34 75.2009C118.059 75.1678 119.778 75.0624 121.497 75.0724C122.258 75.0768 122.071 74.6282 122.108 74.2114C122.153 73.714 121.955 73.641 121.487 73.6614C120.33 73.7119 119.17 73.678 117.944 73.678ZM93.3936 119.578C95.4451 119.574 97.396 117.812 97.3883 115.971C97.3801 114.013 95.7643 112.308 93.9329 112.324C91.8387 112.343 89.9746 114.054 89.9864 115.947C89.9983 117.862 91.6132 119.583 93.3936 119.578ZM112.649 103.965C112.88 103.595 113.104 103.259 113.303 102.91C113.511 102.546 113.136 102.512 112.966 102.389C112.345 101.938 111.277 101.722 111.154 101.073C111.023 100.384 111.889 99.7242 112.244 99.011C112.456 98.5858 112.676 98.6182 113.018 98.8595C113.493 99.1942 114.028 99.4459 114.489 99.7971C115.009 100.193 115.203 99.884 115.424 99.4801C115.622 99.1177 115.905 98.8518 115.306 98.5032C113.752 97.5981 112.239 96.6187 110.731 95.636C110.299 95.3544 110.082 95.3228 109.766 95.8166C109.401 96.3873 109.384 96.733 110.048 97.0095C110.271 97.122 110.485 97.2515 110.687 97.3966C111.591 97.9499 111.596 97.953 111.028 98.8547C110.693 99.387 110.517 100.231 109.96 100.354C109.407 100.476 108.871 99.8087 108.342 99.4672C107.959 99.2198 107.668 99.1017 107.443 99.6348C107.28 100.024 106.788 100.341 107.5 100.757C109.077 101.679 110.606 102.683 112.154 103.654C112.292 103.74 112.43 103.827 112.649 103.965ZM50.0827 112.101C50.088 111.902 49.9398 111.819 49.8032 111.724C48.5556 110.852 47.3036 109.987 46.0654 109.102C45.6989 108.84 45.5117 108.962 45.2886 109.295C44.2418 110.859 43.1869 112.418 42.1046 113.957C41.8081 114.379 42.0418 114.523 42.3383 114.728C43.5682 115.578 44.793 116.435 46.0125 117.3C46.3153 117.515 46.5383 117.658 46.8076 117.228C47.0467 116.846 47.0633 116.628 46.6464 116.362C45.8081 115.828 45.0163 115.221 44.1843 114.676C43.8034 114.427 43.6761 114.198 44.0151 113.829C44.1483 113.687 44.2608 113.528 44.3493 113.355C44.5841 112.876 44.8282 112.782 45.2887 113.157C45.9305 113.679 46.6416 114.116 47.3192 114.594C47.6063 114.797 47.8461 114.98 48.1226 114.538C48.3539 114.168 48.4048 113.93 47.9886 113.664C47.2428 113.188 46.539 112.645 45.7886 112.176C45.2333 111.83 45.5703 111.533 45.7914 111.24C45.9942 110.971 46.0912 110.461 46.6447 110.88C47.4381 111.48 48.2738 112.024 49.0954 112.587C49.1891 112.644 49.2957 112.676 49.4053 112.681C49.515 112.686 49.6241 112.664 49.7226 112.615C49.8211 112.567 49.9058 112.494 49.9687 112.404C50.0317 112.314 50.0709 112.21 50.0827 112.101ZM62.7405 116.845C62.2927 116.8 61.842 116.896 61.4516 117.12C60.2604 117.763 60.3101 119.384 61.5665 120.18C62.2893 120.639 63.0906 120.973 63.811 121.435C63.9241 121.491 64.0185 121.58 64.0827 121.689C64.1468 121.798 64.1782 121.923 64.1728 122.049C64.1675 122.176 64.1257 122.298 64.0525 122.401C63.9794 122.505 63.8779 122.584 63.7604 122.631C63.1073 122.979 61.3846 122.744 61.26 121.602C61.1617 120.701 60.4089 120.949 59.9838 120.988C59.4529 121.038 59.799 121.577 59.8365 121.878C59.8793 122.154 59.9841 122.417 60.1432 122.647C60.3022 122.877 60.5113 123.068 60.7547 123.206C61.6922 123.821 62.8196 124.08 63.9317 123.934C64.3241 123.903 64.6965 123.748 64.995 123.491C65.2936 123.235 65.503 122.89 65.5931 122.507C65.7147 122.133 65.7083 121.729 65.5749 121.359C65.4416 120.989 65.1889 120.674 64.8567 120.464C64.4247 120.168 63.9448 119.943 63.4876 119.684C63.0688 119.471 62.6626 119.235 62.271 118.975C61.9046 118.707 61.8999 118.368 62.3064 118.102C62.8616 117.738 64.269 118.085 64.4029 118.72C64.5704 119.515 65.1566 119.396 65.6477 119.523C65.9728 119.606 66.1006 119.432 66.0629 119.103C66.0303 118.714 65.8839 118.342 65.642 118.035C64.889 117.117 63.8184 116.962 62.7405 116.845ZM106.361 103.387C107.018 103.68 107.173 103.034 107.51 102.724C107.626 102.617 107.771 102.453 107.591 102.303C107.421 102.159 107.223 102.053 107.01 101.991C106.797 101.929 106.573 101.913 106.353 101.943C105.853 101.998 105.382 102.206 105.003 102.538C104.69 102.81 104.399 103.106 104.133 103.425C103.271 104.486 103.153 105.649 103.807 106.372C104.439 107.071 105.49 107.026 106.687 106.247C107.157 105.906 107.645 105.59 108.149 105.302C108.76 104.993 109.239 105.304 109.237 105.937C109.232 106.887 107.981 107.924 107.1 107.607C106.25 107.301 106.091 108.023 105.937 108.41C105.75 108.881 106.363 108.922 106.691 109.011C106.988 109.079 107.295 109.088 107.595 109.037C108.88 108.855 110.525 107.004 110.578 105.71C110.64 104.186 109.242 103.229 107.875 103.902C107.242 104.242 106.632 104.623 106.048 105.042C105.807 105.229 105.524 105.354 105.223 105.407C104.784 105.455 104.611 105.224 104.654 104.81C104.726 104.106 105.648 103.331 106.361 103.387ZM77.7012 123.294C77.3973 123.315 77.0934 123.339 76.7893 123.357C75.4716 123.438 75.4846 123.437 75.4777 122.079C75.4758 121.691 75.5883 121.539 75.988 121.523C76.8728 121.488 77.7552 121.381 78.64 121.358C79.0979 121.346 79.1786 121.165 79.1647 120.753C79.1503 120.33 79.0461 120.167 78.5876 120.215C77.7344 120.305 76.8708 120.301 76.0193 120.401C75.4492 120.468 75.2696 120.269 75.2993 119.728C75.3229 119.3 75.1496 118.849 75.9009 118.858C76.8111 118.869 77.722 118.718 78.6344 118.681C79.1329 118.661 79.2996 118.485 79.2669 117.976C79.2322 117.438 78.9107 117.523 78.5787 117.548C77.1426 117.658 75.7077 117.789 74.2698 117.865C73.778 117.891 73.6593 118.079 73.6983 118.528C73.8587 120.375 74.0061 122.224 74.1406 124.073C74.1694 124.475 74.27 124.684 74.7282 124.643C76.245 124.507 77.7632 124.388 79.2829 124.285C79.7797 124.253 79.8342 123.999 79.82 123.581C79.8033 123.087 79.4911 123.159 79.1919 123.178C78.6946 123.21 78.198 123.254 77.7012 123.294ZM22.4066 67.5951C22.5624 68.3135 21.9432 69.047 22.6713 69.3256C23.7356 69.7329 23.9025 70.4127 23.7192 71.3744C23.6677 71.6469 23.6526 71.925 23.6744 72.2015C23.7214 72.788 23.5169 73.1655 22.9011 73.2387C22.0826 73.3359 21.9305 73.8744 21.9358 74.5823C21.9388 74.9823 21.9668 75.1589 22.4272 74.9856C24.4182 74.2362 26.4143 73.5004 28.4153 72.778C28.9889 72.572 28.7842 72.1037 28.8312 71.7303C28.873 71.399 28.9783 71.0545 28.5203 70.8195C26.5326 69.7995 24.5658 68.7389 22.4066 67.5951ZM27.3501 94.3687C27.7879 94.2713 28.0577 94.4388 28.2254 94.8824C28.3584 95.2473 28.5382 95.5934 28.7605 95.9118C29.319 96.687 29.3635 97.3725 28.5843 98.0427C28.3302 98.2613 28.6689 99.4763 28.9749 99.6328C29.1476 99.7211 29.2227 99.6001 29.3058 99.4931C30.6634 97.7456 32.0338 96.0077 33.3677 94.2423C33.6821 93.8262 32.9865 92.567 32.4887 92.6001C30.3622 92.7412 28.2375 92.9092 26.111 93.0501C25.7325 93.0752 25.6149 93.1576 25.7883 93.5433C26.0967 94.229 26.4325 94.8087 27.3501 94.3687ZM114.912 86.3596C114.366 86.3797 113.77 86.7936 113.449 87.5358C113.001 88.5759 112.617 89.6438 112.194 90.6952C112.072 90.9985 112.068 91.1979 112.433 91.336C114.243 92.0215 116.046 92.7263 117.851 93.4247C118.033 93.495 118.181 93.5684 118.348 93.3429C118.878 92.6296 118.756 92.1533 117.924 91.8299C117.621 91.6949 117.31 91.5775 116.993 91.4784C116.518 91.3553 116.463 91.1069 116.627 90.683C116.875 90.0978 117.075 89.4929 117.222 88.8745C117.505 87.4895 116.569 86.3593 114.912 86.3596ZM29.0698 79.3914C28.9782 78.5481 28.8551 77.4756 28.7487 76.4015C28.7087 75.9969 28.5603 75.8485 28.1189 75.9126C26.3119 76.1749 24.5017 76.4197 22.6875 76.6252C22.1338 76.6879 21.9805 76.8682 22.0996 77.4157C22.197 77.8637 22.1592 78.3327 22.8509 78.1204C23.0675 78.0731 23.2883 78.0474 23.5099 78.0437C24.7188 77.9281 24.7175 77.9287 24.9003 79.1715C24.9486 79.5001 24.9891 79.8316 25.0656 80.154C25.351 81.3578 26.224 82.0003 27.3465 81.8489C28.5145 81.6914 29.1095 80.9256 29.0698 79.3914ZM29.9958 64.291C30.0004 61.9975 28.2995 60.5083 26.1092 60.6441C25.4685 60.6876 24.8563 60.9259 24.3549 61.3272C23.8535 61.7285 23.4867 62.2734 23.3038 62.8891C22.8932 64.1991 22.8594 65.4699 23.9996 66.4884C24.1686 66.6393 24.3315 66.9107 24.6221 66.7777C25.0521 66.5809 25.1812 65.5885 24.8166 65.2664C24.1567 64.6834 24.1154 63.9804 24.411 63.2256C24.6998 62.4882 25.2889 62.2024 26.0581 62.2057C26.53 62.2142 26.998 62.2919 27.4474 62.4363C28.2697 62.6859 28.8066 63.2144 28.8378 64.0945C28.8674 64.9248 28.5732 65.6025 27.7145 65.936C26.9951 66.2152 27.3016 66.9017 27.4063 67.2946C27.5284 67.7523 28.0366 67.4126 28.307 67.2656C29.5739 66.5766 29.9099 65.3715 29.9958 64.291ZM116.851 79.7209C116.402 79.6897 115.958 79.8259 115.604 80.1033C115.25 80.3806 115.011 80.7794 114.934 81.2224C114.674 82.3263 114.507 83.4522 114.285 84.5658C114.197 85.0112 114.414 85.1446 114.807 85.2106C116.61 85.5132 118.412 85.8243 120.209 86.1566C120.683 86.2442 120.835 86.0692 120.926 85.6275C121.054 85.011 120.977 84.6382 120.239 84.6092C119.829 84.5931 119.427 84.4334 119.015 84.394C118.63 84.3571 118.563 84.1729 118.621 83.839C118.72 83.2658 118.819 82.6911 118.881 82.113C119.026 80.7448 118.164 79.7404 116.851 79.7209H116.851ZM100.073 107.701C99.9942 107.749 99.9201 107.786 99.854 107.835C98.6715 108.701 97.4921 109.571 96.3072 110.434C95.9501 110.694 96.187 110.902 96.3458 111.122C97.396 112.583 98.4559 114.036 99.4899 115.508C99.7867 115.931 100.006 116.141 100.518 115.732C100.986 115.357 101.194 115.093 100.706 114.582C100.366 114.225 100.143 113.76 99.8192 113.384C99.4944 113.007 99.6023 112.778 99.9643 112.529C100.534 112.138 101.075 111.706 101.645 111.315C102.003 111.07 101.911 110.846 101.703 110.564C101.502 110.293 101.346 110.108 100.991 110.396C100.433 110.849 99.817 111.23 99.261 111.684C98.6284 112.202 98.5483 111.523 98.3068 111.26C98.0589 110.99 97.7366 110.705 98.2971 110.345C99.0411 109.868 99.7282 109.303 100.445 108.784C100.641 108.642 100.813 108.506 100.623 108.253C100.467 108.046 100.411 107.729 100.073 107.701L100.073 107.701ZM68.3963 117.727L68.3958 117.735C68.2298 117.722 68.0641 117.706 67.898 117.695C67.4934 117.67 67.0929 117.533 67.0616 118.229C67.0321 118.887 67.4475 118.776 67.8016 118.823C68.0484 118.863 68.2989 118.875 68.5484 118.859C69.1679 118.798 69.2829 119.086 69.2303 119.646C69.0981 121.054 69.0629 122.471 68.9003 123.875C68.8306 124.476 69.0568 124.568 69.548 124.613C70.0478 124.658 70.4089 124.659 70.4305 124.001C70.466 122.92 70.5636 121.842 70.6228 120.762C70.7144 119.092 70.7101 119.092 72.3728 119.131C72.4282 119.132 72.4836 119.138 72.5388 119.144C73.1008 119.202 72.9445 118.769 73.0079 118.473C73.0962 118.062 72.8682 118.031 72.5461 118.011C71.1621 117.929 69.7794 117.824 68.3963 117.727ZM31.1307 91.0179C31.6005 90.9016 32.0448 90.8591 31.7566 90.1206C31.193 88.6764 30.7337 87.1914 30.2337 85.7225C30.1228 85.3966 30.1389 84.9927 29.5522 85.2084C29.0505 85.3928 28.9858 85.6272 29.192 86.066C29.321 86.3405 29.3705 86.6523 29.4992 86.9269C29.7384 87.4372 29.5616 87.6436 29.0457 87.804C27.7495 88.2071 26.4796 88.6943 25.1859 89.1061C24.6528 89.2758 24.3949 89.4389 24.6302 90.0835C24.8405 90.6591 25.036 90.8101 25.6301 90.5651C26.5506 90.1856 27.5174 89.9197 28.456 89.5818C30.1068 88.9877 30.1031 88.9805 30.736 90.6179C30.8088 90.8062 30.7896 91.0975 31.1307 91.0179ZM35.0083 97.2913C34.8651 97.3787 34.7664 97.4292 34.6783 97.4942C33.1627 98.6134 31.6538 99.7417 30.1297 100.849C29.7965 101.091 29.8107 101.276 30.0413 101.587C30.8826 102.721 31.7069 103.867 32.5143 105.026C32.7342 105.342 32.9118 105.449 33.2314 105.167C33.4818 104.947 33.7787 104.812 33.4434 104.393C32.8906 103.701 32.4197 102.945 31.8742 102.247C31.5659 101.853 31.5761 101.626 32.0072 101.325C33.1872 100.502 34.3374 99.6351 35.4904 98.7736C35.6671 98.6416 35.9892 98.5358 35.7828 98.199C35.6037 97.8371 35.3376 97.5252 35.0083 97.2913ZM116.425 76.7656L116.423 76.7831C116.285 76.7841 116.147 76.7748 116.01 76.7553C115.298 76.6024 115.363 77.1024 115.306 77.5465C115.246 78.0089 115.308 78.2256 115.873 78.2553C117.693 78.3511 119.51 78.5123 121.325 78.6726C121.795 78.7141 122.008 78.5688 121.938 78.0943C121.886 77.7368 122.289 77.2033 121.464 77.1605C119.782 77.0732 118.104 76.9021 116.425 76.7656V76.7656ZM111.55 92.5958C111.174 92.8049 111.131 93.2457 110.945 93.5895C110.794 93.8686 110.964 93.9829 111.183 94.0921C112.891 94.9428 114.601 95.7881 116.3 96.6558C116.945 96.9856 116.967 96.3916 117.162 96.0983C117.37 95.7862 117.463 95.5172 116.95 95.2756C115.275 94.4863 113.633 93.6238 111.979 92.7906C111.855 92.7286 111.728 92.6761 111.55 92.5958V92.5958ZM23.6907 85.6401C25.7067 85.1642 27.7073 84.7389 29.675 84.1944C30.1669 84.0583 29.704 83.5327 29.6855 83.1875C29.6716 82.9285 29.629 82.6839 29.2469 82.7762C27.342 83.2367 25.4367 83.6963 23.5266 84.1349C23.0606 84.2419 23.121 84.5446 23.2424 84.8192C23.3654 85.0974 23.1584 85.594 23.6907 85.6401ZM57.3338 122.391C57.844 122.432 57.8302 122.062 57.9037 121.839C58.4723 120.108 58.9863 118.358 59.5833 116.638C59.8343 115.914 59.3159 115.973 58.9422 115.799C58.4527 115.57 58.279 115.747 58.1328 116.223C57.6223 117.885 57.0728 119.535 56.5267 121.186C56.2563 122.003 56.5315 122.383 57.3338 122.391Z" fill="#242A6B"/>
<path d="M72.1686 21.8964C70.6784 21.9124 69.1883 21.9283 67.6982 21.9442C69.4006 14.7203 70.5083 7.38308 71.8744 0C72.2945 0.554963 72.3629 1.1571 72.4886 1.72449C73.5244 6.40264 74.2578 11.1373 75.1222 15.8477C75.3925 17.3207 75.6077 18.7986 75.7587 20.2863C75.7756 20.6033 75.8552 20.9139 75.993 21.2C76.1307 21.4861 76.3238 21.742 76.5611 21.9529C76.0392 21.951 75.5175 21.9491 74.996 21.9473C74.9622 21.6177 74.9502 21.2843 74.8914 20.9592C74.473 18.6432 74.0488 16.3282 73.6188 14.0143C73.1621 11.5648 72.6945 9.11724 72.2317 6.66883L72.1686 6.6797V21.8964Z" fill="#096B8F"/>
<path d="M67.5884 126.216C68.048 126.127 68.5193 126.119 68.9817 126.191C68.9714 126.273 68.9695 126.356 68.9761 126.439C69.7496 130.69 70.5268 134.94 71.3076 139.19C71.4357 139.881 71.544 140.586 71.9492 141.22V126.355C72.5237 126.056 73.143 126.213 73.7416 126.193C74.5829 126.165 75.4259 126.184 76.268 126.183C75.3377 131.134 74.4075 136.085 73.4776 141.036C73.1355 142.859 72.7879 144.68 72.4632 146.505C72.4049 146.879 72.2463 147.23 72.0045 147.521C71.5518 146.835 71.4462 146.062 71.3142 145.317C70.7347 142.047 70.1831 138.771 69.6298 135.496C69.1825 132.849 68.8167 130.187 68.1397 127.583C68.0156 127.106 67.951 126.599 67.5884 126.216Z" fill="#096B8F"/>
<path d="M123.633 78.0627C123.385 77.6774 123.469 77.2827 123.599 76.8865C123.955 76.8546 124.317 76.8516 124.666 76.7862C127.058 76.3391 129.447 75.8754 131.838 75.4239C133.856 75.0427 135.876 74.6705 137.896 74.2944L137.897 74.0807C137.36 74.0807 136.823 74.082 136.286 74.0805C132.108 74.0687 127.929 74.0566 123.75 74.0442C123.477 72.621 123.383 71.1692 123.471 69.7227C124.465 69.9498 125.453 70.1986 126.452 70.3993C132.262 71.5671 138.074 72.7287 143.886 73.8842C143.988 73.9045 144.089 73.93 144.323 73.9835C143.472 74.3338 142.584 74.5885 141.677 74.7427C137.952 75.4659 134.22 76.1503 130.49 76.8481C128.558 77.2096 126.625 77.5693 124.693 77.9272C124.343 77.9913 124.001 78.1373 123.633 78.0627Z" fill="#096B8F"/>
<path d="M20.5158 73.9332C20.5157 74.9093 20.6088 75.8831 20.7937 76.8415C20.858 77.3277 20.8009 77.8223 20.6276 78.2811C16.9663 77.5396 13.305 76.7985 9.64371 76.058C6.54997 75.436 3.45408 74.8247 0.359819 74.2053C0.233972 74.1515 0.113497 74.0858 0 74.0093C1.96871 73.5602 3.77239 73.0873 5.60049 72.7444C9.57097 71.9998 13.5647 71.3819 17.524 70.5726C18.5835 70.3561 19.6214 70.0693 20.656 69.7646C20.7596 70.2507 20.9078 70.7362 20.6637 71.224C20.429 71.0413 20.1802 71.1598 19.9438 71.2049C15.5624 72.0396 11.1815 72.8769 6.80107 73.7168C6.6242 73.7506 6.47431 73.7921 6.47322 74.0375C11.1553 74.2124 15.8342 73.8345 20.5158 73.9332Z" fill="#096B8F"/>
<path d="M35.6266 110.885C36.6243 111.837 37.6219 112.79 38.6194 113.742C37.2132 114.524 36.2032 115.754 35.0895 116.866C31.4591 120.491 28.0185 124.295 24.5458 128.068C24.1535 128.495 23.8113 128.967 23.4127 129.459C23.0952 129.026 23.1522 128.845 23.3339 128.578C26.8345 123.429 30.5573 118.439 34.1587 113.362C34.7127 112.581 35.3784 111.853 35.6266 110.885Z" fill="#096B8F"/>
<path d="M107.296 112.169C107.872 111.596 108.463 111.036 109.02 110.445C109.354 110.077 109.75 109.771 110.191 109.541C114.804 114.852 119.769 119.853 124.195 125.335C122.783 124.581 121.483 123.632 120.335 122.516C116.38 118.907 111.989 115.834 107.953 112.328C107.748 112.15 107.564 112.021 107.296 112.169Z" fill="#096B8F"/>
<path d="M109.553 38.0772C108.738 37.4401 107.958 36.7705 107.451 35.8442C111.494 32.5614 115.314 29.0082 119.493 25.8789C118.412 27.4437 117.238 28.9422 115.978 30.3665C113.795 32.9022 111.482 35.3298 109.553 38.0772Z" fill="#096B8F"/>
<path d="M36.8024 36.0146C36.062 36.7427 35.5325 37.7065 34.4837 38.0903C31.4192 34.2596 27.9682 30.7495 24.9397 26.6348C25.8601 26.9521 26.3524 27.5386 26.9258 28.0187C30.0997 30.6765 33.109 33.5333 36.4897 35.9409C36.5886 35.9843 36.6945 36.0093 36.8024 36.0146Z" fill="#096B8F"/>
<path d="M47.627 28.1411C47.1997 28.3954 46.7725 28.6496 46.3455 28.9037C46.6042 28.6229 46.3882 28.3947 46.2582 28.1634C45.8661 27.4657 45.4375 26.7865 45.0818 26.071C44.7845 25.4728 44.4756 25.1418 43.8135 25.8241C43.7354 25.0127 44.038 24.3843 44.1707 23.7312C44.2276 23.451 44.4655 23.5301 44.6431 23.5858C45.2198 23.7666 45.7915 23.9632 46.5678 24.2211C45.2424 24.6372 45.8546 25.2758 46.1996 25.8344C46.6746 26.6036 46.974 27.4827 47.627 28.1411Z" fill="#096B8F"/>
<path d="M27.7157 100.562C27.9683 101.001 28.2208 101.44 28.4732 101.879C28.0212 101.728 27.7664 102.103 27.4491 102.282C26.8969 102.595 26.3784 102.966 25.8298 103.285C25.3048 103.591 24.7699 103.865 25.6741 104.55C24.8102 104.675 24.2035 104.375 23.5726 104.283C23.2577 104.236 23.2856 104.007 23.3553 103.774C23.5211 103.221 23.6841 102.666 23.8895 101.972C24.385 102.972 24.9315 102.606 25.5159 102.199C26.0818 101.805 26.6814 101.459 27.269 101.096C27.4792 100.966 27.7235 100.872 27.7157 100.562Z" fill="#096B8F"/>
<path d="M121.96 61.0002C121.833 60.5011 121.705 60.0021 121.578 59.5032C122.797 59.4704 123.855 58.8624 124.989 58.5302C125.582 58.3567 124.957 57.9187 125.109 57.5498C125.781 57.5933 126.324 58.0501 126.95 58.2658C127.164 58.3397 127.128 58.5142 127.038 58.6747C126.733 59.2213 126.426 59.7668 126.028 60.4756C125.789 59.364 125.238 59.5483 124.59 59.8205C123.895 60.0955 123.186 60.3339 122.467 60.5348C122.204 60.614 122.008 60.7119 121.96 61.0002Z" fill="#096B8F"/>
<path d="M115.769 101.824C115.486 101.268 116.373 101.333 116.273 100.874C117.056 101.385 117.864 101.862 118.615 102.416C119.175 102.829 119.652 103.181 120.039 102.323C120.257 102.338 120.247 102.47 120.27 102.568C120.76 104.661 120.76 104.662 118.406 104.757C119.155 103.909 118.484 103.605 117.905 103.239C117.184 102.782 116.48 102.297 115.769 101.824Z" fill="#096B8F"/>
<path d="M56.9999 124.025C57.4614 124.197 57.988 124.129 58.4191 124.409C57.96 124.536 58.0537 124.986 57.9352 125.293C57.7178 125.857 57.6113 126.463 57.3939 127.027C57.1483 127.664 56.9725 128.224 58.1023 128.391C57.4228 128.8 56.908 129.105 56.3984 129.419C56.1081 129.597 55.9556 129.482 55.8278 129.206C55.5874 128.685 55.326 128.174 54.9941 127.497C56.1224 127.962 56.2153 127.247 56.3746 126.569C56.5744 125.719 57.0287 124.932 56.9999 124.025Z" fill="#096B8F"/>
<path d="M97.4359 28.5998C96.9253 28.6766 96.6512 28.2895 96.3135 28.0279C97.0135 27.1232 97.409 26.0537 97.9004 25.0393C98.1719 24.4787 97.3429 24.6248 97.2794 24.2344C97.3567 24.0601 97.5417 24.0625 97.6872 24.0069C99.5158 23.3082 99.7234 23.4509 99.887 25.6019C99.0666 25.0356 98.8149 25.5586 98.5532 26.2009C98.2206 27.0168 97.8118 27.8016 97.4359 28.5998Z" fill="#096B8F"/>
<path d="M29.166 44.8406C29.2633 45.2982 29.0004 45.6024 28.7159 45.8973C27.8426 45.1226 26.793 44.6106 25.8294 43.9709C25.2645 43.5958 25.3122 44.3924 24.8574 44.4749C24.7007 43.9177 24.531 43.3264 24.369 42.7331C24.2866 42.4311 24.3879 42.2822 24.7231 42.2393C25.2946 42.1661 25.8597 42.0433 26.6504 41.9014C25.768 42.8884 26.5342 43.1236 27.0974 43.4768C27.797 43.9154 28.4774 44.3846 29.166 44.8406Z" fill="#096B8F"/>
<path d="M85.6689 124.404C86.0627 124.249 86.4815 124.167 86.9045 124.163C87.1766 125.036 87.4713 125.904 87.7129 126.785C87.884 127.41 88.0571 127.945 88.8405 127.521C89.0372 127.741 88.8612 127.869 88.8 128.001C87.9421 129.852 87.7495 129.882 86.1216 128.378C87.0694 128.241 86.9223 127.663 86.6654 127.072C86.2858 126.2 86.3386 125.167 85.6689 124.404Z" fill="#096B8F"/>
<path d="M99.781 118.193C99.8042 117.586 100.646 118.094 100.695 117.522C101.166 118.302 101.654 119.073 102.104 119.864C102.434 120.443 102.742 120.981 103.543 120.322C103.578 121.071 103.325 121.668 103.242 122.289C103.198 122.618 102.951 122.552 102.729 122.49C102.173 122.336 101.618 122.182 100.886 121.978C102.105 121.393 101.418 120.814 101.054 120.232C100.63 119.552 100.206 118.872 99.781 118.193Z" fill="#096B8F"/>
<path d="M83.2932 23.1054C82.9195 23.1396 82.628 22.9222 82.3106 22.7841C82.3524 21.839 82.6403 20.9393 82.8543 20.0297C83.0108 19.3644 83.1309 18.8153 81.928 18.8258C82.6429 18.3163 83.1609 17.9458 83.6805 17.5774C83.8698 17.4433 84.0236 17.4458 84.1529 17.6744C84.4621 18.2211 84.7847 18.7602 85.201 19.4716C84.0822 19.0255 83.9962 19.6811 83.8731 20.3522C83.7038 21.2744 83.4887 22.1881 83.2932 23.1054Z" fill="#096B8F"/>
<path d="M61.503 22.8827C61.3273 23.4898 60.8307 23.1912 60.4615 23.2515C60.4433 22.0855 60.0705 20.9761 59.9101 19.8319C59.823 19.2106 59.2421 19.736 58.8782 19.4516C59.2067 18.9365 59.5427 18.4138 59.8739 17.8881C59.995 17.6959 60.1268 17.6051 60.3388 17.7718C60.8282 18.1567 61.3218 18.5363 61.9664 19.0366C61.0072 19.0985 60.9186 19.5056 61.0853 20.191C61.2992 21.0701 61.3704 21.9839 61.503 22.8827Z" fill="#096B8F"/>
<path d="M121.771 87.4814C122.273 87.0204 122.062 86.3385 122.292 85.7939C122.316 86.0926 122.306 86.3646 122.725 86.4585C123.639 86.6632 124.541 86.9211 125.442 87.1796C126.16 87.3854 125.931 86.6928 126.211 86.4034C126.713 86.8392 126.962 87.4574 127.334 87.9808C127.474 88.1775 127.423 88.3403 127.203 88.4505C126.647 88.7288 126.092 89.0103 125.354 89.3824C125.841 88.3188 125.264 88.1454 124.581 88.054C123.631 87.9269 122.766 87.3856 121.771 87.4814Z" fill="#096B8F"/>
<path d="M21.8573 86.2434C21.9868 86.5792 22.2716 86.863 22.1993 87.2662C21.3409 87.4841 20.4897 87.7391 19.6218 87.908C18.9532 88.0382 18.4103 88.175 18.8542 89.1291C18.1161 88.9448 17.6209 88.5487 17.0653 88.2834C16.7051 88.1113 16.8374 87.887 16.9673 87.6786C17.273 87.1881 17.6018 86.7119 18.0069 86.1006C18.1769 87.3946 18.9189 86.9683 19.6011 86.7877C20.3488 86.5898 21.1049 86.4235 21.8573 86.2434Z" fill="#096B8F"/>
<path d="M43.3076 117.345C43.666 117.588 44.0752 117.765 44.3341 118.137C43.484 118.934 42.9676 119.98 42.29 120.906C41.9082 121.427 42.7571 121.387 42.7828 121.764C42.7748 121.778 42.7671 121.81 42.7495 121.817C40.741 122.591 40.3219 122.288 40.3807 120.035C41.1084 120.699 41.4832 120.25 41.8347 119.633C42.2841 118.845 42.9633 118.203 43.3076 117.345Z" fill="#096B8F"/>
<path d="M115.48 45.6035C114.964 45.5587 115.168 45.0394 114.95 44.798C115.664 44.2771 116.35 43.7101 117.101 43.2499C117.689 42.8895 117.93 42.5488 117.208 41.8369C118.047 41.9237 118.66 41.9982 119.275 42.0466C119.664 42.0772 119.629 42.3089 119.568 42.5725C119.439 43.1355 119.31 43.6987 119.148 44.4054C118.571 43.3659 118.049 43.9034 117.478 44.2903C116.819 44.7369 116.234 45.3004 115.48 45.6035Z" fill="#096B8F"/>
<path d="M22.5119 59.4733C22.412 59.8374 22.7221 60.3095 22.2232 60.5683C21.3108 60.3384 20.3974 60.1116 19.4861 59.8773C18.6926 59.6733 18.6936 59.6695 18.3468 60.5176C17.8226 60.0648 17.6001 59.4319 17.2229 58.9172C17.0136 58.6316 17.2897 58.5301 17.4766 58.4298C17.9854 58.1566 18.5009 57.8957 19.1439 57.5625C18.7061 58.7173 19.481 58.7637 20.1711 58.9138C20.9549 59.0842 21.7049 59.3976 22.5119 59.4733Z" fill="#096B8F"/>
<path d="M67.6261 22.0117C67.5705 22.0596 67.5045 22.0939 67.4334 22.1119C67.3623 22.1298 67.2879 22.1309 67.2163 22.1151C67.3533 22.0806 67.4899 22.0461 67.6261 22.0117Z" fill="#096B8F"/>
<path d="M21.9476 85.9229C21.9695 85.9453 21.9853 85.9729 21.9937 86.0031C22.002 86.0332 22.0025 86.0651 21.9952 86.0955C21.9879 86.126 21.973 86.1541 21.9519 86.1773C21.9308 86.2004 21.9042 86.2178 21.8745 86.2279C21.8989 86.1262 21.9232 86.0245 21.9476 85.9229Z" fill="#096B8F"/>
<path d="M22.307 87.4014C22.3181 87.4118 22.3266 87.4247 22.332 87.4389C22.3374 87.4532 22.3395 87.4684 22.3382 87.4836L22.2861 87.4556L22.307 87.4014Z" fill="#096B8F"/>
<path d="M42.8877 117.04L42.9484 117.077L42.9003 117.096L42.8877 117.04Z" fill="#096B8F"/>
<path d="M86.9482 124.069C86.9776 124.037 87.0176 124.017 87.061 124.012C87.0494 124.082 87.0251 124.127 86.9482 124.069Z" fill="#096B8F"/>
<path d="M82.3018 22.8008C82.2566 22.8338 82.2114 22.8668 82.1663 22.8997C82.2116 22.8668 82.2568 22.8338 82.3018 22.8008Z" fill="#096B8F"/>
<path d="M113.746 74.102C101.35 74.2053 88.9534 74.3176 76.5567 74.1406C75.9511 74.1319 75.73 73.9804 75.7322 73.3547C75.74 72.3011 75.6909 71.2478 75.585 70.1995C75.534 69.8353 75.5751 69.4641 75.7047 69.1199C75.8343 68.7757 76.0482 68.4696 76.3268 68.2294C78.0546 66.5503 79.7207 64.8077 81.4273 63.1063C82.1617 62.3742 82.5466 61.5872 82.2943 60.503C81.9745 59.1291 81.7891 57.7244 81.4933 56.3442C81.3614 55.729 81.5537 55.5608 82.1426 55.568C83.5192 55.5846 84.8916 55.3958 86.2334 55.9929C87.0006 56.3342 87.8003 55.7518 88.1431 54.8311C88.5202 53.8184 88.5248 52.7632 88.4577 51.713C88.4211 51.1408 88.5734 50.7587 89.1064 50.5337C89.7592 50.2581 89.5704 49.9468 89.1495 49.6026C87.5498 48.2939 85.7361 47.3396 83.8984 46.4273C83.2046 46.0829 82.4961 45.7646 81.7789 45.4723C81.4362 45.3326 81.0161 45.0423 80.696 45.3639C80.3967 45.6645 80.6387 46.0971 80.7172 46.4696C80.8657 47.1738 81.0311 47.8753 81.1482 48.5847C81.1898 48.836 81.458 49.256 80.9812 49.3238C80.5674 49.3826 80.1192 49.3397 80.0189 48.7118C79.7875 47.2625 79.4983 45.8225 79.2303 44.3791C78.5324 40.6219 77.8345 36.8648 77.1366 33.1076C77.1016 32.9184 77.0939 32.7241 77.0735 32.5323C77.3472 32.0793 77.7816 32.3163 78.1528 32.2812C78.6238 34.7509 79.0833 37.2227 79.5729 39.6887C79.7092 40.375 80.2388 40.6485 80.8922 40.766C85.3153 41.5616 88.8475 44.1445 92.4211 46.6078C93.1486 47.1093 93.539 47.1747 94.2327 46.5948C95.8846 45.214 97.5115 43.7948 99.2941 42.5761C99.5372 42.5859 99.8328 42.4967 100.007 42.6805C101.051 43.783 102.313 44.6841 103.117 46.0104C101.632 47.9011 100.159 49.8019 98.6527 51.6751C98.2986 52.1153 98.2831 52.4232 98.6198 52.8916C101.397 56.7644 103.454 61.106 104.692 65.7084C104.801 66.1088 105.023 66.2057 105.384 66.2725C107.804 66.7201 110.219 67.1924 112.637 67.6477C112.86 67.6898 113.119 67.8683 113.312 67.5725C113.714 69.7243 113.859 71.916 113.746 74.102ZM99.8603 64.7398C99.5658 63.6969 99.1964 62.6766 98.7551 61.6869C97.9553 59.8855 97.1035 58.112 95.8605 56.5595C95.5362 56.1545 95.2902 55.9267 94.9003 56.5568C94.3764 57.4034 93.7394 58.1799 93.1544 58.989C92.2382 60.1721 91.3846 61.4025 90.5972 62.675C90.3313 63.1379 90.3238 63.4082 90.9624 63.4967C91.8676 63.6222 92.7633 63.8171 93.662 63.988C95.5138 64.3403 97.3638 64.7029 99.2178 65.0431C99.461 65.0877 99.8485 65.2744 99.8603 64.7398ZM79.8865 41.5721C80.0269 43.175 80.1377 43.2614 81.522 43.7505C84.844 44.9241 88.0968 46.2411 90.7225 48.7078C90.7597 48.7553 90.8062 48.7948 90.8592 48.824C90.9121 48.8531 90.9703 48.8712 91.0305 48.8773C91.0906 48.8833 91.1513 48.8772 91.2089 48.8592C91.2666 48.8412 91.32 48.8117 91.366 48.7725C92.3318 48.2087 92.3987 48.0133 91.5394 47.3079C88.1293 44.5083 84.1325 42.8934 79.8865 41.5721ZM103.335 65.425C103.282 65.182 103.237 64.9366 103.173 64.6964C102.509 62.1968 101.445 59.8602 100.266 57.5702C99.5988 56.2657 98.7921 55.0373 97.8602 53.9064C97.7185 53.7351 97.6003 53.3521 97.2439 53.5601C97.1154 53.6374 97.0038 53.74 96.916 53.8616C96.8282 53.9833 96.766 54.1214 96.7331 54.2678C96.7002 54.4142 96.6973 54.5657 96.7246 54.7132C96.752 54.8607 96.8089 55.0012 96.892 55.126C98.7473 58.2303 100.807 61.232 101.688 64.8197C101.843 65.4495 102.349 65.6656 102.934 65.7442C103.171 65.7762 103.402 65.7882 103.335 65.425Z" fill="#096B8F"/>
<path d="M72.1278 31.9303C72.1306 34.7041 72.1195 37.4781 72.1481 40.2516C72.1536 40.7861 72.0072 41.0121 71.4631 40.9679C71.1858 40.9543 70.9078 40.9655 70.6325 41.0013C67.827 41.2796 66.5455 43.326 67.4935 46.0078C68.0609 47.6128 67.6987 48.3169 66.0337 48.7142C65.1724 48.9198 64.2854 49.0156 63.4193 49.2038C62.8752 49.322 62.715 49.1644 62.8122 48.6245C62.9888 47.6429 63.1147 46.6521 63.2976 45.6718C63.395 45.1501 63.2592 45.0126 62.7474 45.1707C59.6989 46.1231 56.8434 47.6085 54.3136 49.558C54.1528 49.6805 53.8413 49.844 54.0718 50.0665C54.5884 50.5652 54.2678 51.1212 54.2295 51.6348C54.1151 52.6289 54.2018 53.6359 54.4842 54.5959C54.8424 55.6742 55.665 56.2102 56.7347 55.8988C59.2223 55.1746 61.6808 55.6214 64.1448 55.9758C64.7458 56.0623 65.3284 56.2709 65.9277 56.3763C66.6065 56.4956 66.8961 56.8833 66.9665 57.5512C67.3901 61.5656 67.2011 65.5854 67.102 69.6047C67.0982 69.7583 67.1512 70.0097 66.9399 70.0026C66.7829 69.9973 66.6132 69.8201 66.4816 69.6874C64.6095 67.7988 62.7175 65.9289 60.8906 63.9974C60.3332 63.4082 59.803 63.3394 59.0564 63.47C52.2052 64.6688 45.4212 66.2061 38.5914 67.5114C36.1429 67.9794 33.7032 68.4935 31.2587 68.9825C31.1227 68.9999 30.9857 69.0071 30.8486 69.0039C30.7262 68.5871 30.7259 68.1439 30.8477 67.727C30.9526 67.7582 31.0616 67.7729 31.171 67.7705C33.4842 67.3326 35.7928 66.8699 38.1105 66.4578C38.6155 66.368 38.7017 66.0588 38.8015 65.6751C39.237 63.9853 39.7769 62.3243 40.4179 60.7013C41.5325 57.8315 43.0654 55.1424 44.9669 52.7211C45.3173 52.2804 45.2762 51.9831 44.9289 51.5143C43.6281 49.7586 42.1616 48.128 40.9761 46.2863C41.0591 45.5144 41.7283 45.1682 42.1841 44.684C42.7563 44.0761 43.4245 43.5624 43.8542 42.8208C43.9813 42.6015 44.278 42.6262 44.5101 42.5751C46.1821 43.8908 47.8757 45.1802 49.5153 46.535C50.1542 47.063 50.6196 46.9532 51.1756 46.4635C52.08 45.689 53.049 44.9935 54.0721 44.3845C57.0636 42.5809 60.3004 41.2197 63.6818 40.3433C63.9901 40.2601 64.3135 40.2411 64.3965 39.7927C64.8299 37.4523 65.2918 35.1172 65.7502 32.7815C65.7977 32.5393 65.7334 32.4102 65.4823 32.3906C66.744 32.2091 67.9891 31.9038 69.2779 31.9292C70.2275 31.948 71.1778 31.9312 72.1278 31.9303ZM43.3853 65.3756C43.5162 65.3842 43.6476 65.3834 43.7784 65.3733C46.7557 64.8601 49.7179 64.2715 52.6572 63.5714C53.5688 63.3542 53.5821 63.3266 53.0765 62.5229C51.6874 60.3145 50.0353 58.2962 48.4957 56.1964C48.1229 55.688 47.9486 55.9607 47.7156 56.2839C45.7367 59.0284 44.1695 61.9695 43.3853 65.3756ZM39.9682 65.608C40.0226 65.7694 39.8586 66.1124 40.2417 66.0498C40.8634 65.9481 41.5174 65.8751 41.7057 65.0698C42.5056 61.648 44.1389 58.6124 46.0672 55.7139C46.3478 55.3022 46.5955 54.8689 46.808 54.4182C47.097 53.7859 46.4238 53.6438 46.1474 53.3323C45.9321 53.0896 45.7868 53.4123 45.6703 53.5886C44.1579 55.8759 42.6514 58.1701 41.5721 60.7028C40.9002 62.2792 40.2361 63.8665 39.9682 65.608ZM64.0294 42.0806C64.1325 41.5562 63.9496 41.3791 63.4085 41.6114C63.0749 41.7438 62.7348 41.8593 62.3896 41.9574C58.6086 43.1457 55.0666 44.8042 51.9638 47.3073C51.7452 47.4837 51.1325 47.6809 51.5447 48.0835C51.857 48.3886 52.2438 49.0307 52.9123 48.3928C53.551 47.8178 54.2538 47.3184 55.0068 46.9043C57.5259 45.3914 60.2219 44.1948 63.0338 43.3418C63.6628 43.157 64.0602 42.809 64.0294 42.0806Z" fill="#096B8F"/>
<path d="M30.4152 72.2793C30.4806 73.9316 30.4806 73.9309 32.1419 73.9334C42.4944 73.9488 52.8469 73.9655 63.1994 73.9837C64.2256 73.9858 65.2518 74.0572 66.2781 74.0593C66.7001 74.0602 66.8968 74.1777 66.8526 74.6246C66.6717 76.4546 66.505 78.3053 66.4502 80.1215C66.4034 81.6751 65.2822 82.0947 64.5847 82.9563C63.904 83.7971 62.9915 84.4393 62.3094 85.2992C62.05 85.6242 61.8629 86.0007 61.7605 86.4037C61.658 86.8067 61.6427 87.2269 61.7153 87.6363C61.8866 88.7605 62.1205 89.8742 62.4158 90.9724C62.5664 91.5769 62.3663 91.7551 61.7791 91.7651C58.2211 91.8643 54.7514 90.6492 52.0327 88.3518C51.7974 88.1579 51.6238 87.9624 51.8337 87.6538C52.4105 86.8059 52.9759 85.9496 53.58 85.1215C53.7071 84.9473 53.9805 84.8797 54.3109 84.6925C53.068 84.1914 51.9272 83.7212 50.7788 83.2704C47.9157 82.1467 45.0433 81.0464 42.1885 79.902C41.5488 79.6455 41.4177 79.8131 41.4812 80.4324C41.5622 81.2208 41.5927 82.0144 41.6498 82.8799C41.503 82.6871 41.3355 82.511 41.1504 82.3548C40.7728 82.1126 40.2912 81.8748 39.9159 82.1205C39.6386 82.3021 39.9802 82.7195 40.0562 83.0225C40.4608 84.7508 41.0388 86.4338 41.7814 88.0461C42.2247 88.9717 42.0697 90.0044 42.1618 91.0404C41.868 90.9655 41.8327 90.7313 41.7464 90.5626C40.4078 87.9458 39.2064 85.2732 38.6633 82.3616C38.5703 81.8627 38.3098 81.7555 37.901 81.6664C35.5732 81.1592 33.2493 80.6344 30.9236 80.1153C30.3054 77.5322 30.2647 74.9119 30.4152 72.2793Z" fill="#096B8F"/>
<path d="M72.3406 25.2676C87.3419 25.7121 99.7668 31.7877 109.339 43.6227C112.328 47.3825 114.737 51.5685 116.487 56.0416C116.748 56.6897 116.661 56.8251 115.923 56.8985C114.557 57.0344 113.896 56.6094 113.305 55.2692C108.984 45.4679 102.065 38.0202 92.5751 33.0193C87.112 30.1375 81.0969 28.4545 74.9315 28.0826C56.0152 26.8599 38.5774 37.8217 30.8989 55.2678C30.3378 56.5427 29.7364 57.0736 28.3623 56.8888C27.4109 56.7609 27.3927 56.8628 27.7482 55.9904C31.4731 46.8485 37.2665 39.3336 45.4115 33.7063C51.9762 29.1374 59.6067 26.3356 67.5683 25.5707C69.0893 25.4176 70.6131 25.4043 72.3406 25.2676Z" fill="#FBFDFE"/>
<path d="M71.8914 116.32C71.9076 113.325 71.9385 110.331 71.9272 107.336C71.9029 107.078 71.9414 106.818 72.0394 106.578C72.1373 106.338 72.2918 106.125 72.4897 105.957C72.8133 105.695 73.0764 105.366 73.261 104.993C74.1849 102.929 75.8983 102.116 78.0104 101.884C78.6987 101.808 79.3894 101.727 80.0673 101.59C80.6791 101.467 80.9139 101.613 80.7117 102.249C80.4797 102.98 80.7315 103.138 81.4315 102.902C82.3881 102.618 83.3124 102.234 84.1896 101.758C86.4081 100.447 88.8485 99.5446 90.991 98.1057C94.144 95.9882 96.1172 92.864 98.0091 89.6835C98.2641 89.2548 98.5055 88.818 98.7561 88.3867C98.7901 88.3405 98.8288 88.298 98.8716 88.2598C99.2631 88.8279 99.2254 89.352 98.8707 89.9501C98.278 90.9496 97.806 92.0209 97.2073 93.0164C96.8741 93.5705 96.959 94.006 97.435 94.2886C97.9264 94.5802 98.1464 94.0541 98.363 93.7487C98.763 93.1849 99.0923 92.5711 99.4902 92.0057C99.6167 91.8259 99.6808 91.3328 100.04 91.6144C100.314 91.8291 100.752 92.0955 100.384 92.636C99.8228 93.4597 99.3312 94.3304 98.7966 95.1726C98.5869 95.5029 98.4858 95.7824 98.7869 96.1375C100.328 97.955 101.85 99.7888 103.382 101.614C103.446 101.667 103.518 101.709 103.595 101.739C102.637 103.008 101.412 104.024 100.331 105.176C100.108 105.413 99.855 105.621 99.6158 105.843C99.633 105.564 99.3911 105.487 99.2269 105.356C97.5619 104.03 95.7752 102.853 94.2268 101.387C93.7219 100.909 93.3214 100.95 92.852 101.302C92.1665 101.816 91.5187 102.382 90.8187 102.874C87.5763 105.106 83.9844 106.781 80.191 107.83C79.8793 107.921 79.543 107.937 79.4678 108.382C79.0493 110.862 78.6114 113.34 78.1801 115.818C76.113 116.35 73.9877 116.154 71.8914 116.32ZM80.3346 106.562C81.4998 106.323 82.6359 105.959 83.7231 105.476C86.6494 104.2 89.4616 102.733 91.9489 100.692C92.5051 100.236 92.3722 99.9627 91.9258 99.6077C91.8014 99.4751 91.6317 99.3943 91.4504 99.3811C91.2691 99.368 91.0894 99.4235 90.9472 99.5367C90.3427 99.9746 89.7161 100.382 89.1127 100.821C86.6461 102.62 83.8836 103.974 80.9502 104.82C80.1383 105.055 80.0386 105.529 79.9286 106.159C79.8647 106.526 80.0057 106.613 80.3346 106.562Z" fill="#096B8F"/>
<path d="M65.9354 115.84C65.623 113.399 65.0902 110.998 64.627 108.584C64.5365 108.113 64.1934 108.08 63.8464 107.987C60.5519 107.097 57.361 105.947 54.4076 104.205C53.3014 103.575 52.2692 102.824 51.3301 101.965C51.0859 101.735 50.864 101.573 50.5589 101.858C48.944 103.369 47.3299 104.881 45.7166 106.394C45.6481 106.459 45.648 106.596 45.6159 106.699C44.242 105.423 42.6107 104.404 41.6462 102.72C42.7214 101.111 43.7969 99.5028 44.8728 97.8942C45.7478 96.5913 45.7486 96.5578 44.7963 95.3377C44.5927 95.0768 44.3975 94.809 44.2069 94.5384C43.6918 93.8071 43.6936 93.8058 44.3302 93.0064C44.8179 93.6481 45.2766 94.2993 45.7906 94.9035C45.9879 95.1354 46.1895 95.6869 46.5947 95.3402C46.9459 95.0398 47.2952 94.5624 46.9592 94.0184C46.4362 93.1716 45.8734 92.3495 45.3442 91.5064C45.1521 91.2004 44.71 90.7929 45.1317 90.5226C45.4335 90.3291 45.5737 90.9199 45.7215 91.1709C47.3097 93.8676 49.1411 96.3432 51.7598 98.1495C52.9752 99.0263 54.3158 99.7148 55.7365 100.192C57.5774 100.768 59.1689 101.868 60.9552 102.547C61.5494 102.773 62.153 102.977 62.7366 103.228C63.4223 103.523 63.5611 103.237 63.5303 102.603C63.5166 102.322 63.1418 101.854 63.7386 101.755C64.2814 101.664 64.5622 101.912 64.6661 102.519C65.408 106.858 66.193 111.188 66.9612 115.522C66.9713 115.632 66.9719 115.742 66.963 115.852C66.6204 115.848 66.2779 115.844 65.9354 115.84ZM64.2361 106.427C64.1898 105.814 64.1344 105.324 63.3408 105.099C59.764 104.085 56.4013 102.429 53.4171 100.212C52.7259 99.7 52.3618 100.189 52.031 100.525C51.6603 100.901 52.1961 101.141 52.4146 101.357C52.791 101.723 53.2 102.054 53.6367 102.346C55.4924 103.553 57.4719 104.558 59.5413 105.344C60.9003 105.893 62.2599 106.45 63.7111 106.722C63.9641 106.77 64.3034 106.935 64.2361 106.427Z" fill="#096B8F"/>
<path d="M40.62 113.493C39.5464 112.874 39.1614 112.125 39.4223 111.013C39.533 110.386 39.5652 109.748 39.5181 109.113C39.5049 108.888 39.4284 108.671 39.2974 108.488C39.1664 108.305 38.9863 108.163 38.7778 108.078C38.4062 107.914 38.2803 108.414 38.0514 108.622C37.7993 108.839 37.5738 109.085 37.3796 109.356C36.964 109.97 36.6049 109.972 36.116 109.404C35.8393 109.083 35.6895 108.928 36.0499 108.55C37.3289 107.209 38.5824 105.844 39.8103 104.454C40.1289 104.094 40.3081 104.063 40.6498 104.409C41.3879 105.156 42.1833 105.846 42.9274 106.587C43.9794 107.635 44.1802 108.492 43.6289 109.374C43.1011 110.219 42.3341 110.349 40.8205 109.807C41.0396 111.048 40.7492 112.219 40.62 113.493ZM40.5063 105.913C40.1547 106.26 39.833 106.636 39.5446 107.037C39.3536 107.35 39.7685 107.488 39.9444 107.663C40.3166 108.029 40.7085 108.375 41.1184 108.698C41.1948 108.769 41.2851 108.824 41.3836 108.859C41.4821 108.894 41.5868 108.908 41.691 108.901C41.7953 108.894 41.897 108.865 41.9896 108.817C42.0822 108.768 42.1639 108.701 42.2295 108.62C42.309 108.551 42.3731 108.467 42.4177 108.372C42.4623 108.277 42.4864 108.174 42.4883 108.069C42.4902 107.964 42.4699 107.86 42.4287 107.764C42.3875 107.668 42.3265 107.581 42.2495 107.51C41.8067 107.023 41.3137 106.583 40.8373 106.127C40.7329 106.047 40.6222 105.975 40.5063 105.913Z" fill="#FBFDFE"/>
<path d="M85.1385 119.951C86.3996 120.411 87.1711 121.361 88.105 122.165C87.0731 122.762 86.2499 122.707 85.4826 121.836C85.0565 121.399 84.5796 121.015 84.062 120.692C83.8643 120.555 83.6297 120.483 83.3895 120.484C83.1494 120.485 82.9153 120.559 82.7187 120.697C82.3405 120.948 82.6642 121.345 82.7239 121.673C82.7783 121.972 82.8758 122.262 82.9403 122.56C83.1355 123.46 83.0423 123.565 82.0988 123.696C81.788 123.739 81.6602 123.679 81.5879 123.356C81.1592 121.436 80.7194 119.518 80.2521 117.607C80.1626 117.241 80.3133 117.181 80.5918 117.121C81.8092 116.856 83.0015 116.48 84.2439 116.325C85.4499 116.174 86.1751 116.543 86.5076 117.51C86.8168 118.41 86.4713 119.13 85.433 119.755C85.3631 119.797 85.2969 119.845 85.1385 119.951ZM82.6076 119.63C83.2654 119.439 83.9099 119.275 84.5378 119.062C84.6391 119.034 84.7334 118.985 84.8146 118.918C84.8959 118.851 84.9623 118.768 85.0095 118.674C85.0568 118.58 85.084 118.478 85.0892 118.373C85.0944 118.268 85.0777 118.163 85.04 118.064C85.0243 117.967 84.9888 117.875 84.9357 117.792C84.8826 117.709 84.813 117.638 84.7313 117.584C84.6495 117.529 84.5574 117.492 84.4606 117.474C84.3639 117.457 84.2645 117.459 84.1689 117.482C83.5146 117.584 82.8652 117.727 82.2215 117.885C81.6822 118.017 81.943 118.442 82.0334 118.695C82.1518 119.025 81.9903 119.591 82.6076 119.63V119.63Z" fill="#FBFDFE"/>
<path d="M114.214 63.5794C114.212 63.2226 114.287 62.8695 114.435 62.5449C114.583 62.2203 114.801 61.932 115.072 61.7004C115.373 61.4257 115.563 61.4406 115.736 61.8508C115.953 62.364 116.131 62.7534 115.658 63.3127C114.955 64.1458 115.653 66.4754 117.35 66.414C118.368 66.3771 119.324 66.1816 119.827 65.2045C120.34 64.2058 119.999 63.2822 119.377 62.4153C119.332 62.3374 119.272 62.2692 119.2 62.215C119.129 62.1607 119.047 62.1215 118.96 62.0996C118.873 62.0777 118.782 62.0736 118.693 62.0876C118.604 62.1016 118.519 62.1333 118.443 62.1809C118.064 62.3512 118.286 62.6484 118.336 62.8995C118.379 63.1164 118.431 63.332 118.491 63.5449C118.628 64.0317 118.249 64.0077 117.968 64.0818C117.691 64.1546 117.447 64.2457 117.399 63.787C117.328 63.322 117.226 62.8621 117.096 62.4103C116.754 60.9845 116.753 60.9848 118.213 60.6546C119.503 60.3627 119.653 60.4255 120.35 61.5631C120.959 62.5006 121.258 63.6057 121.205 64.7224C121.187 65.5078 120.888 66.2605 120.361 66.8435C119.834 67.4265 119.116 67.801 118.336 67.8988C116.645 68.176 115.268 67.4006 114.616 65.8031C114.336 65.0958 114.199 64.3399 114.214 63.5794Z" fill="#FBFDFE"/>
<path d="M53.7399 120.711C52.698 120.739 51.6691 120.475 50.7686 119.95C48.9298 118.865 48.438 117.014 49.4613 115.095C50.3416 113.444 52.1946 112.939 54.0527 113.809C54.9585 114.234 55.7688 114.751 56.0935 115.749C56.2006 116.078 56.4147 116.522 56.0039 116.802C55.7381 116.983 54.7594 116.461 54.6822 116.122C54.4719 115.2 53.805 114.806 52.9633 114.671C51.644 114.459 50.6868 115.335 50.4459 116.919C50.2577 118.156 51.0422 119.152 52.3786 119.346C52.6819 119.374 52.9868 119.382 53.2911 119.37C53.6693 119.373 53.7051 119.044 53.8 118.803C53.9136 118.514 53.6706 118.425 53.4657 118.333C53.2386 118.231 53.0187 118.107 52.7839 118.028C52.2734 117.857 52.4999 117.55 52.596 117.232C52.7112 116.851 52.8935 116.852 53.2118 117.004C53.8859 117.325 54.5663 117.64 55.2658 117.899C55.7176 118.066 55.7103 118.293 55.5285 118.651C55.3413 118.991 55.1858 119.347 55.064 119.716C54.8344 120.502 54.4004 120.919 53.7399 120.711Z" fill="#FBFDFE"/>
<path d="M117.944 73.6782C119.17 73.6782 120.331 73.7121 121.487 73.6616C121.955 73.6412 122.154 73.7142 122.109 74.2115C122.071 74.6284 122.258 75.077 121.497 75.0726C119.779 75.0626 118.06 75.168 116.34 75.2011C116.047 75.2068 115.548 75.4253 115.496 74.991C115.436 74.5007 115.167 73.9166 115.783 73.4814C117.049 72.5871 118.279 71.6423 119.613 70.6513C118.919 70.4296 118.299 70.5752 117.695 70.5513C117.169 70.521 116.641 70.5346 116.116 70.5919C115.496 70.6716 115.269 70.4743 115.291 69.8369C115.307 69.3816 115.408 69.2116 115.894 69.2058C117.586 69.1856 119.277 69.1018 120.968 69.0806C121.283 69.0767 121.821 68.8141 121.896 69.2709C121.986 69.8122 122.216 70.4544 121.525 70.9167C120.513 71.5931 119.556 72.3529 118.583 73.0872C118.37 73.2484 118.096 73.3486 117.944 73.6782Z" fill="#FBFDFE"/>
<path d="M93.3939 119.578C91.6134 119.583 89.9986 117.862 89.9866 115.947C89.9748 114.054 91.8389 112.343 93.9331 112.324C95.7645 112.308 97.3803 114.013 97.3885 115.971C97.3962 117.812 95.4453 119.574 93.3939 119.578ZM91.4569 115.61C91.4645 116.989 92.6014 118.316 93.7664 118.304C94.8806 118.293 95.9414 117.258 95.9211 116.201C95.8955 114.871 94.7556 113.542 93.6467 113.549C92.497 113.556 91.4511 114.54 91.4569 115.61Z" fill="#FBFDFE"/>
<path d="M112.649 103.965C112.43 103.827 112.292 103.74 112.154 103.653C110.606 102.683 109.077 101.679 107.5 100.757C106.788 100.341 107.28 100.023 107.444 99.6346C107.668 99.1015 107.959 99.2196 108.342 99.467C108.871 99.8085 109.407 100.475 109.96 100.354C110.517 100.231 110.693 99.3868 111.028 98.8545C111.596 97.9528 111.591 97.9498 110.688 97.3964C110.485 97.2513 110.271 97.1219 110.048 97.0093C109.384 96.7328 109.401 96.3871 109.766 95.8164C110.082 95.3226 110.299 95.3542 110.731 95.6358C112.239 96.6186 113.752 97.5979 115.306 98.5031C115.905 98.8516 115.622 99.1176 115.424 99.4799C115.203 99.8838 115.009 100.193 114.489 99.797C114.029 99.4457 113.493 99.194 113.018 98.8593C112.676 98.618 112.456 98.5856 112.244 99.0109C111.889 99.724 111.024 100.384 111.154 101.073C111.277 101.722 112.345 101.938 112.966 102.388C113.136 102.512 113.511 102.546 113.303 102.91C113.104 103.259 112.88 103.595 112.649 103.965Z" fill="#FBFDFE"/>
<path d="M50.0827 112.101C50.0708 112.21 50.0316 112.314 49.9687 112.404C49.9057 112.494 49.8211 112.567 49.7226 112.615C49.6241 112.663 49.515 112.686 49.4054 112.681C49.2957 112.676 49.1891 112.644 49.0955 112.586C48.2739 112.024 47.4382 111.48 46.6448 110.879C46.0913 110.461 45.9943 110.971 45.7915 111.24C45.5704 111.533 45.2334 111.829 45.7887 112.176C46.5391 112.645 47.2429 113.188 47.9887 113.664C48.4049 113.93 48.354 114.168 48.1227 114.538C47.8462 114.98 47.6064 114.797 47.3193 114.594C46.6416 114.115 45.9306 113.679 45.2888 113.156C44.8283 112.781 44.5842 112.875 44.3494 113.355C44.2609 113.528 44.1483 113.687 44.0151 113.828C43.6761 114.198 43.8034 114.426 44.1843 114.676C45.0164 115.221 45.8082 115.828 46.6464 116.362C47.0634 116.628 47.0468 116.845 46.8077 117.227C46.5384 117.658 46.3154 117.515 46.0125 117.3C44.7937 116.434 43.569 115.577 42.3383 114.728C42.0418 114.523 41.8081 114.378 42.1047 113.957C43.187 112.417 44.2419 110.859 45.2886 109.295C45.5118 108.962 45.6989 108.84 46.0654 109.102C47.3037 109.987 48.5557 110.852 49.8033 111.724C49.9399 111.819 50.088 111.902 50.0827 112.101Z" fill="#FBFDFE"/>
<path d="M62.7406 116.845C63.8184 116.962 64.889 117.117 65.642 118.035C65.8839 118.342 66.0303 118.714 66.063 119.103C66.1006 119.432 65.9728 119.606 65.6477 119.523C65.1567 119.396 64.5704 119.515 64.403 118.721C64.269 118.085 62.8616 117.738 62.3064 118.102C61.9 118.368 61.9047 118.707 62.271 118.975C62.6626 119.235 63.0688 119.471 63.4877 119.684C63.9448 119.943 64.4247 120.168 64.8567 120.464C65.1889 120.674 65.4416 120.989 65.575 121.359C65.7083 121.729 65.7147 122.133 65.5931 122.507C65.5031 122.89 65.2936 123.235 64.9951 123.491C64.6965 123.748 64.3242 123.903 63.9318 123.934C62.8197 124.08 61.6922 123.821 60.7547 123.206C60.5113 123.068 60.3023 122.877 60.1432 122.647C59.9842 122.417 59.8793 122.155 59.8365 121.878C59.7991 121.577 59.4529 121.038 59.9839 120.988C60.4089 120.949 61.1617 120.701 61.26 121.602C61.3846 122.744 63.1073 122.979 63.7604 122.631C63.8779 122.585 63.9794 122.505 64.0526 122.401C64.1257 122.298 64.1675 122.176 64.1728 122.049C64.1782 121.923 64.1469 121.798 64.0827 121.689C64.0185 121.58 63.9242 121.492 63.811 121.435C63.0907 120.973 62.2893 120.639 61.5666 120.18C60.3102 119.384 60.2605 117.764 61.4517 117.12C61.842 116.896 62.2927 116.8 62.7406 116.845Z" fill="#FBFDFE"/>
<path d="M106.361 103.387C105.648 103.33 104.726 104.105 104.654 104.81C104.612 105.223 104.784 105.454 105.224 105.406C105.524 105.354 105.807 105.229 106.048 105.042C106.632 104.622 107.242 104.241 107.875 103.901C109.242 103.228 110.641 104.185 110.578 105.709C110.526 107.004 108.88 108.854 107.595 109.036C107.295 109.087 106.988 109.079 106.692 109.011C106.363 108.922 105.75 108.88 105.938 108.41C106.092 108.022 106.251 107.3 107.101 107.606C107.981 107.923 109.233 106.887 109.237 105.936C109.24 105.303 108.76 104.993 108.149 105.302C107.645 105.59 107.157 105.905 106.687 106.246C105.49 107.026 104.439 107.071 103.807 106.371C103.153 105.648 103.272 104.485 104.133 103.424C104.399 103.106 104.69 102.809 105.004 102.537C105.382 102.206 105.853 101.998 106.353 101.943C106.573 101.912 106.797 101.929 107.01 101.991C107.224 102.053 107.421 102.159 107.591 102.303C107.771 102.453 107.626 102.616 107.51 102.724C107.173 103.034 107.018 103.679 106.361 103.387Z" fill="#FBFDFE"/>
<path d="M77.7014 123.293C78.1983 123.254 78.6948 123.21 79.1921 123.178C79.4913 123.159 79.8035 123.087 79.8202 123.581C79.8344 123.999 79.7799 124.253 79.2831 124.285C77.7636 124.385 76.2453 124.504 74.7284 124.642C74.2702 124.683 74.1696 124.475 74.1408 124.073C74.0082 122.224 73.8608 120.375 73.6985 118.528C73.6595 118.079 73.7782 117.891 74.27 117.865C75.7079 117.789 77.1428 117.658 78.5789 117.548C78.911 117.522 79.2324 117.438 79.2671 117.976C79.2998 118.485 79.1332 118.661 78.6347 118.681C77.7223 118.718 76.8113 118.869 75.9011 118.858C75.1499 118.849 75.3231 119.3 75.2995 119.728C75.2698 120.268 75.4495 120.468 76.0195 120.401C76.871 120.3 77.7346 120.305 78.5878 120.215C79.0463 120.166 79.1506 120.33 79.1649 120.753C79.1789 121.165 79.0981 121.345 78.6403 121.358C77.7554 121.381 76.8731 121.488 75.9882 121.523C75.5885 121.539 75.476 121.691 75.478 122.079C75.4848 123.437 75.4718 123.437 76.7896 123.357C77.0937 123.338 77.3975 123.315 77.7014 123.293Z" fill="#FBFDFE"/>
<path d="M22.4068 67.5947C24.566 68.7385 26.5327 69.7991 28.5204 70.8191C28.9785 71.0541 28.8731 71.3986 28.8314 71.7299C28.7843 72.1033 28.989 72.5716 28.4155 72.7776C26.4134 73.4967 24.4173 74.2325 22.4273 74.9852C21.967 75.1585 21.9389 74.9819 21.9359 74.5819C21.9306 73.8739 22.0827 73.3355 22.9012 73.2382C23.5171 73.1651 23.7216 72.7875 23.6745 72.201C23.6528 71.9246 23.6678 71.6464 23.7193 71.374C23.9026 70.4123 23.7358 69.7325 22.6714 69.3252C21.9433 69.0466 22.5626 68.3131 22.4068 67.5947ZM27.2999 71.6946C26.3722 71.2771 25.7236 70.6281 24.9554 70.7208C24.6788 70.7542 24.8781 71.7753 24.7615 72.3354C24.7529 72.3771 24.802 72.4309 24.8382 72.5091C25.6148 72.3714 26.3301 72.0458 27.2999 71.6946Z" fill="#FBFDFE"/>
<path d="M27.3503 94.3689C26.4327 94.8089 26.0969 94.2292 25.7885 93.5435C25.6151 93.1578 25.7327 93.0754 26.1112 93.0503C28.2377 92.9094 30.3624 92.7414 32.4889 92.6002C32.9867 92.5672 33.6823 93.8264 33.3679 94.2425C32.034 96.0079 30.6636 97.7458 29.3059 99.4933C29.2229 99.6002 29.1478 99.7213 28.9751 99.633C28.6691 99.4765 28.3304 98.2615 28.5845 98.0429C29.3637 97.3727 29.3192 96.6872 28.7607 95.912C28.5384 95.5936 28.3586 95.2475 28.2256 94.8826C28.0579 94.439 27.7881 94.2715 27.3503 94.3689ZM31.5878 94.0525C30.837 94.1038 29.9621 93.9655 29.3427 94.3736C29.1117 94.5258 29.7371 95.4036 30.03 95.9236C30.0471 95.9541 30.1252 95.9502 30.2265 95.9748C30.6466 95.4643 31.082 94.9353 31.5173 94.4061C31.5697 94.3656 31.6058 94.3075 31.6187 94.2425C31.6317 94.1775 31.6207 94.11 31.5878 94.0525Z" fill="#FBFDFE"/>
<path d="M114.912 86.3594C116.569 86.359 117.506 87.4893 117.223 88.8743C117.075 89.4927 116.876 90.0976 116.627 90.6828C116.463 91.1067 116.519 91.3551 116.993 91.4782C117.31 91.5773 117.621 91.6946 117.924 91.8297C118.756 92.1531 118.878 92.6294 118.348 93.3427C118.181 93.5681 118.033 93.4948 117.851 93.4245C116.046 92.726 114.243 92.0213 112.433 91.3358C112.069 91.1977 112.072 90.9983 112.194 90.6949C112.617 89.6436 113.001 88.5757 113.45 87.5356C113.77 86.7933 114.366 86.3795 114.912 86.3594ZM116.021 88.9025C116.035 88.7246 115.999 88.5462 115.917 88.388C115.834 88.2297 115.708 88.0981 115.554 88.0085C115.406 87.929 115.239 87.8921 115.072 87.902C114.904 87.9119 114.743 87.9682 114.606 88.0647C114.368 88.2589 114.196 88.5209 114.111 88.8156C113.474 90.2378 113.532 90.3422 115.037 90.7164C115.243 90.7675 115.412 90.849 115.499 90.5819C115.679 90.0302 115.954 89.5081 116.021 88.9025H116.021Z" fill="#FBFDFE"/>
<path d="M29.0698 79.3916C29.1095 80.9258 28.5145 81.6915 27.3465 81.8491C26.224 82.0005 25.351 81.3579 25.0656 80.1542C24.9891 79.8317 24.9486 79.5003 24.9003 79.1717C24.7175 77.9288 24.7188 77.9282 23.5099 78.0438C23.2882 78.0475 23.0675 78.0732 22.8509 78.1205C22.1592 78.3328 22.197 77.8639 22.0996 77.4159C21.9805 76.8683 22.1338 76.688 22.6875 76.6253C24.5017 76.4199 26.3119 76.1751 28.1189 75.9128C28.5603 75.8487 28.7087 75.9971 28.7487 76.4017C28.8551 77.4758 28.9782 78.5483 29.0698 79.3916ZM27.0851 77.5561C26.9274 77.5835 26.5485 77.6593 26.1664 77.7121C25.9318 77.7446 25.8283 77.8361 25.8585 78.0886C25.8974 78.6678 26.0171 79.2387 26.2141 79.7847C26.2718 79.9424 26.3751 80.0794 26.5108 80.1782C26.6465 80.277 26.8086 80.3332 26.9764 80.3397C27.1434 80.3486 27.3092 80.3072 27.4525 80.2209C27.5958 80.1347 27.7099 80.0074 27.7802 79.8556C28.1647 79.121 27.7792 78.3972 27.7366 77.6707C27.7258 77.4866 27.4763 77.5185 27.0851 77.5561Z" fill="#FBFDFE"/>
<path d="M29.9959 64.2912C29.91 65.3717 29.574 66.5769 28.3071 67.2658C28.0367 67.4128 27.5285 67.7526 27.4064 67.2948C27.3017 66.9019 26.9952 66.2154 27.7146 65.9362C28.5733 65.6028 28.8674 64.925 28.8379 64.0947C28.8067 63.2146 28.2698 62.6862 27.4475 62.4365C26.9982 62.2921 26.5301 62.2145 26.0582 62.2059C25.289 62.2026 24.6999 62.4885 24.4111 63.2258C24.1155 63.9807 24.1568 64.6836 24.8167 65.2666C25.1813 65.5887 25.0522 66.5811 24.6222 66.7779C24.3316 66.9109 24.1687 66.6396 23.9997 66.4886C22.8595 65.4701 22.8933 64.1993 23.3039 62.8893C23.4868 62.2737 23.8536 61.7287 24.355 61.3274C24.8564 60.9261 25.4686 60.6878 26.1093 60.6443C28.2996 60.5085 30.0005 61.9977 29.9959 64.2912Z" fill="#FBFDFE"/>
<path d="M116.851 79.7212C118.164 79.7407 119.026 80.7451 118.881 82.1133C118.82 82.6914 118.72 83.2661 118.621 83.8393C118.563 84.1732 118.63 84.3574 119.015 84.3943C119.427 84.4337 119.829 84.5934 120.239 84.6095C120.977 84.6385 121.054 85.0113 120.926 85.6278C120.835 86.0695 120.683 86.2446 120.209 86.1569C118.412 85.8246 116.61 85.5135 114.807 85.2109C114.414 85.145 114.197 85.0116 114.286 84.5661C114.507 83.4525 114.674 82.3266 114.934 81.2227C115.011 80.7796 115.25 80.3809 115.604 80.1036C115.958 79.8262 116.402 79.69 116.851 79.7212ZM117.73 82.5343C117.725 82.0876 117.678 81.6733 117.291 81.4127C117.155 81.3155 116.993 81.2611 116.826 81.2565C116.659 81.2519 116.494 81.2973 116.353 81.3868C115.999 81.5918 115.442 83.3033 115.624 83.6589C115.683 83.7436 115.768 83.8069 115.866 83.8395C117.112 84.3482 117.449 84.1587 117.669 82.8363C117.687 82.7283 117.713 82.6216 117.73 82.5343Z" fill="#FBFDFE"/>
<path d="M113.412 80.1123C110.674 80.5354 107.973 81.1431 105.264 81.7122C104.847 81.7998 104.764 82.0911 104.661 82.4095C103.964 84.5699 103.458 86.7953 102.47 88.8566C102.324 89.1934 102.13 89.5071 101.893 89.7881C101.904 88.8132 101.77 87.8328 102.156 86.9083C102.705 85.5758 103.128 84.1949 103.419 82.7835C103.496 82.4237 103.529 82.1073 102.968 82.1949C102.762 82.227 102.362 82.5663 102.34 82.0415C102.324 81.6494 102.2 81.1367 102.892 81.0357C103.851 80.8957 104.795 80.6634 105.747 80.4819C108.305 79.9945 110.863 79.5103 113.422 79.0293C113.602 79.3919 113.368 79.7509 113.412 80.1123Z" fill="#096B8F"/>
<path d="M100.074 107.701C100.411 107.73 100.467 108.046 100.623 108.253C100.813 108.506 100.641 108.642 100.446 108.784C99.7283 109.303 99.0412 109.869 98.2972 110.346C97.7367 110.705 98.059 110.991 98.3069 111.261C98.5484 111.524 98.6285 112.202 99.2611 111.685C99.817 111.23 100.433 110.849 100.991 110.397C101.346 110.108 101.502 110.293 101.703 110.564C101.911 110.846 102.003 111.07 101.645 111.315C101.075 111.706 100.534 112.138 99.9644 112.53C99.6024 112.779 99.4945 113.007 99.8194 113.385C100.143 113.76 100.366 114.225 100.706 114.582C101.194 115.093 100.986 115.358 100.518 115.732C100.006 116.142 99.7868 115.931 99.49 115.508C98.456 114.037 97.396 112.583 96.3459 111.123C96.1871 110.902 95.9502 110.695 96.3073 110.435C97.4921 109.572 98.6716 108.701 99.8541 107.835C99.9202 107.787 99.9943 107.749 100.074 107.701Z" fill="#FBFDFE"/>
<path d="M68.3965 117.727C69.7796 117.824 71.1623 117.928 72.5463 118.011C72.8684 118.03 73.0963 118.062 73.0081 118.473C72.9447 118.768 73.101 119.202 72.539 119.143C72.4838 119.137 72.4284 119.132 72.373 119.131C70.7103 119.091 70.7146 119.092 70.623 120.762C70.5638 121.842 70.4661 122.92 70.4307 124C70.4091 124.659 70.048 124.658 69.5482 124.612C69.057 124.568 68.8307 124.476 68.9005 123.874C69.0631 122.471 69.0983 121.053 69.2305 119.646C69.283 119.086 69.168 118.798 68.5486 118.859C68.2991 118.875 68.0485 118.863 67.8018 118.823C67.4477 118.775 67.0323 118.887 67.0618 118.229C67.0931 117.532 67.4936 117.669 67.8981 117.695C68.0643 117.705 68.23 117.721 68.3959 117.735L68.3965 117.727Z" fill="#FBFDFE"/>
<path d="M31.1309 91.0177C30.7898 91.0973 30.809 90.8059 30.7362 90.6176C30.1033 88.9803 30.107 88.9874 28.4562 89.5816C27.5176 89.9194 26.5508 90.1853 25.6303 90.5649C25.0362 90.8098 24.8406 90.6589 24.6304 90.0832C24.395 89.4386 24.653 89.2755 25.1861 89.1058C26.4798 88.694 27.7497 88.2068 29.0459 87.8038C29.5618 87.6433 29.7386 87.4369 29.4994 86.9266C29.3707 86.652 29.3212 86.3402 29.1922 86.0657C28.986 85.6269 29.0507 85.3925 29.5524 85.2081C30.139 84.9925 30.123 85.3963 30.2339 85.7222C30.7339 87.1911 31.1932 88.6761 31.7568 90.1203C32.045 90.8588 31.6007 90.9013 31.1309 91.0177Z" fill="#FBFDFE"/>
<path d="M35.0084 97.291C35.3377 97.5249 35.6038 97.8368 35.7829 98.1988C35.9893 98.5356 35.6672 98.6414 35.4906 98.7734C34.3376 99.6349 33.1874 100.501 32.0074 101.325C31.5763 101.626 31.5661 101.853 31.8743 102.247C32.4199 102.945 32.8908 103.701 33.4436 104.392C33.7789 104.812 33.4819 104.946 33.2315 105.167C32.9119 105.449 32.7343 105.341 32.5144 105.026C31.707 103.868 30.8827 102.721 30.0414 101.586C29.8108 101.276 29.7967 101.091 30.1299 100.849C31.6539 99.7414 33.1629 98.6131 34.6784 97.494C34.7665 97.4289 34.8653 97.3784 35.0084 97.291Z" fill="#FBFDFE"/>
<path d="M116.425 76.765C118.104 76.9015 119.782 77.0726 121.464 77.1599C122.289 77.2027 121.886 77.7362 121.938 78.0937C122.008 78.5682 121.795 78.7134 121.326 78.672C119.51 78.5117 117.693 78.3505 115.873 78.2547C115.308 78.225 115.246 78.0083 115.306 77.5459C115.363 77.1018 115.298 76.6018 116.01 76.7547C116.147 76.7742 116.285 76.7835 116.423 76.7825L116.425 76.765Z" fill="#FBFDFE"/>
<path d="M111.551 92.5957C111.728 92.676 111.856 92.7285 111.979 92.7905C113.634 93.6237 115.275 94.4863 116.95 95.2756C117.463 95.5172 117.37 95.7861 117.162 96.0983C116.967 96.3915 116.945 96.9855 116.3 96.6557C114.601 95.788 112.891 94.9427 111.183 94.092C110.964 93.9829 110.794 93.8685 110.945 93.5895C111.132 93.2456 111.174 92.8048 111.551 92.5957Z" fill="#FBFDFE"/>
<path d="M23.691 85.6396C23.1586 85.5935 23.3656 85.097 23.2426 84.8188C23.1212 84.5441 23.0609 84.2414 23.5268 84.1345C25.4369 83.6959 27.3422 83.2363 29.2472 82.7758C29.6292 82.6834 29.6719 82.9281 29.6858 83.187C29.7043 83.5322 30.1671 84.0578 29.6752 84.194C27.7076 84.7385 25.7069 85.1637 23.691 85.6396Z" fill="#FBFDFE"/>
<path d="M57.334 122.39C56.5316 122.383 56.2564 122.003 56.5268 121.185C57.0729 119.534 57.6224 117.884 58.1329 116.222C58.2791 115.746 58.4529 115.57 58.9423 115.798C59.316 115.973 59.8345 115.914 59.5834 116.637C58.9864 118.358 58.4725 120.107 57.9038 121.838C57.8303 122.062 57.8441 122.431 57.334 122.39Z" fill="#FBFDFE"/>
<path d="M20.5983 73.1716C20.5047 72.8184 20.5196 72.4452 20.641 72.1006C20.7006 72.4567 20.6861 72.8213 20.5983 73.1716Z" fill="#096B8F"/>
<path d="M20.589 73.6943L20.5566 73.6462L20.5893 73.5986L20.6346 73.6465L20.589 73.6943Z" fill="#096B8F"/>
<path d="M96.6197 83.8932L92.0188 83.0156C94.2854 82.1018 96.3552 81.2667 98.4256 80.4331C99.3502 80.061 100.278 79.6979 101.2 79.3192C101.608 79.1516 101.745 79.2442 101.713 79.7024C101.442 83.5438 101.186 87.3863 100.913 91.4272C99.9245 89.7722 99.9202 87.9408 99.0088 86.3209C98.4428 87.3256 97.9258 88.2551 97.3977 89.1782C96.4228 90.8902 95.3283 92.5313 94.1223 94.0892C91.2764 97.7519 87.4207 99.6185 82.9448 100.373C80.8678 100.723 78.7838 101.031 76.7043 101.367C75.0053 101.641 73.7978 102.545 72.9292 104.057C71.632 106.317 71.1505 106.332 69.8325 104.094C68.7703 102.291 67.1714 101.499 65.2369 101.176C62.8859 100.783 60.4936 100.663 58.1646 100.122C53.077 98.9399 49.4013 95.9172 46.8218 91.4473C46.2616 90.4277 45.6059 89.4635 44.8636 88.5678C44.3639 90.0929 43.9015 91.5044 43.4378 92.9199C43.0232 92.791 43.0572 92.5278 43.0444 92.3349C42.8033 88.6815 42.5784 85.0269 42.3378 81.3734C42.3087 80.9321 42.4052 80.8433 42.8364 81.0139C45.8004 82.1867 48.7731 83.3375 51.7414 84.4996C51.8118 84.5271 51.8634 84.6029 51.9922 84.7165C50.796 84.9775 49.6273 85.043 48.5086 85.371C48.0398 85.5085 47.8281 85.6298 48.2517 86.0443C51.07 88.8018 54.0367 91.325 58.0442 92.1858C59.6555 92.5319 61.2743 92.7075 62.9156 92.391C64.7063 92.0457 65.8215 90.9628 66.1613 89.1639C66.9868 84.7939 67.2773 80.3638 67.5603 75.9377C67.8932 70.7311 68.098 65.518 67.9687 60.2979C67.9298 59.1899 67.8224 58.0853 67.6471 56.9905C67.6233 56.6994 67.5072 56.4236 67.3158 56.203C67.1244 55.9824 66.8676 55.8287 66.5828 55.7641C63.8601 54.9736 61.0257 54.637 58.1936 54.7679C57.7253 54.8182 57.2643 54.9216 56.8195 55.0763C55.9512 55.3203 55.4316 55.1308 55.2004 54.2962C54.8307 52.9209 54.8652 51.4681 55.2997 50.1118C55.49 49.4847 55.9723 49.3192 56.5542 49.5659C60.0471 51.047 63.4788 49.9901 66.8919 49.2579C68.277 48.9608 68.8671 47.4408 68.3461 46.086C68.108 45.5841 67.9789 45.0375 67.9673 44.4822C68.0404 42.8528 68.8365 41.9625 70.4423 41.8149C71.2666 41.7391 72.0846 41.7056 72.8965 42.0404C73.5238 42.2776 74.0376 42.7441 74.3343 43.3455C74.631 43.947 74.6884 44.6386 74.4949 45.2807C74.1856 46.2776 74.295 47.2565 74.5084 48.2386C74.6796 49.0268 75.331 49.2476 75.9986 49.3688C77.9897 49.7305 79.9913 50.0248 82.0033 50.2518C83.3829 50.4077 84.6863 50.3589 85.9505 49.646C86.8033 49.1651 87.2498 49.4022 87.4696 50.3386C87.82 51.7162 87.8014 53.1618 87.4156 54.5298C87.2642 55.0441 86.912 55.4372 86.3768 55.2107C84.3995 54.3742 82.3812 54.8366 80.3769 54.943C79.0456 55.0202 77.7277 55.2511 76.4495 55.6312C76.0407 55.7164 75.6715 55.9342 75.3992 56.2508C75.1269 56.5675 74.9668 56.9652 74.9438 57.3821C74.5666 60.3963 74.5927 63.4191 74.6798 66.4426C74.85 72.3503 75.1973 78.2485 75.7891 84.1296C75.9555 85.7826 76.1552 87.4393 76.4748 89.0678C76.875 91.1075 78.3095 92.2515 80.3893 92.3912C83.4624 92.5977 86.2403 91.5729 88.9311 90.2779C91.9415 88.8291 94.0882 86.3236 96.6197 83.8932ZM71.3626 43.6172C70.7896 43.6311 70.2108 43.7094 70.1418 44.4236C70.0809 45.053 70.5572 45.2972 71.0913 45.3251C71.6912 45.3565 72.3089 45.2474 72.4026 44.5061C72.4957 43.7707 71.8935 43.7122 71.3626 43.6172Z" fill="#242A6B"/>
<path d="M75.8398 77.2393C78.1878 79.4236 80.5648 81.5781 82.8662 83.8104C83.5617 84.485 84.2213 84.7513 85.1595 84.53C86.4247 84.2317 87.72 84.0591 88.9823 83.7504C90.264 83.4369 91.4685 83.6203 92.8481 84.0735C92.0942 84.2702 91.5178 84.4229 90.94 84.5706C90.4217 84.7032 90.2317 84.9315 90.6196 85.425C90.9608 85.8591 91.2241 86.3562 91.5786 86.7776C91.919 87.1821 91.8263 87.4304 91.4444 87.724C88.446 90.029 85.0844 91.4407 81.2975 91.633C78.9187 91.7538 77.4352 90.7969 77.0889 88.2778C76.6624 85.1747 76.3406 82.062 76.1236 78.9396C76.0788 78.2864 76.0279 77.6335 75.9799 76.9805L75.8398 77.2393Z" fill="#096B8F"/>
<path d="M40.5062 105.913C40.6221 105.976 40.7328 106.047 40.8372 106.127C41.3137 106.583 41.8066 107.024 42.2494 107.51C42.3264 107.581 42.3875 107.668 42.4286 107.764C42.4698 107.861 42.4901 107.965 42.4882 108.069C42.4863 108.174 42.4623 108.277 42.4177 108.372C42.3731 108.467 42.3089 108.551 42.2294 108.62C42.1638 108.701 42.0822 108.768 41.9895 108.817C41.8969 108.865 41.7952 108.894 41.691 108.901C41.5867 108.909 41.482 108.894 41.3835 108.859C41.285 108.824 41.1947 108.77 41.1184 108.698C40.7084 108.375 40.3165 108.029 39.9443 107.663C39.7684 107.488 39.3535 107.35 39.5446 107.037C39.8329 106.636 40.1546 106.26 40.5062 105.913Z" fill="#242A6B"/>
<path d="M82.6077 119.63C81.9904 119.591 82.1519 119.025 82.0335 118.695C81.9431 118.442 81.6823 118.017 82.2216 117.885C82.8653 117.728 83.5146 117.584 84.1689 117.482C84.2646 117.459 84.3639 117.457 84.4607 117.474C84.5575 117.492 84.6496 117.529 84.7313 117.584C84.8131 117.638 84.8827 117.709 84.9358 117.792C84.9889 117.875 85.0244 117.967 85.04 118.065C85.0777 118.163 85.0945 118.268 85.0893 118.373C85.084 118.478 85.0569 118.58 85.0096 118.674C84.9623 118.768 84.8959 118.851 84.8147 118.918C84.7334 118.985 84.6391 119.034 84.5378 119.062C83.9099 119.275 83.2655 119.439 82.6077 119.63Z" fill="#242A6B"/>
<path d="M91.4568 115.61C91.451 114.541 92.4969 113.556 93.6466 113.549C94.7555 113.542 95.8954 114.871 95.921 116.201C95.9413 117.258 94.8805 118.293 93.7662 118.304C92.6013 118.316 91.4643 116.99 91.4568 115.61Z" fill="#242A6B"/>
<path d="M27.2999 71.6946C26.3301 72.0458 25.6148 72.3714 24.8381 72.5091C24.802 72.4309 24.7528 72.3771 24.7615 72.3355C24.8781 71.7753 24.6788 70.7543 24.9554 70.7209C25.7235 70.6281 26.3722 71.2771 27.2999 71.6946Z" fill="#242A6B"/>
<path d="M31.5877 94.0518C31.6206 94.1093 31.6316 94.1768 31.6187 94.2418C31.6057 94.3068 31.5697 94.3649 31.5172 94.4054C31.082 94.9346 30.6465 95.4636 30.2265 95.9741C30.1251 95.9495 30.0471 95.9534 30.0299 95.9229C29.737 95.4029 29.1117 94.5251 29.3426 94.3729C29.962 93.9648 30.8369 94.1031 31.5877 94.0518Z" fill="#242A6B"/>
<path d="M116.021 88.9025C115.954 89.508 115.679 90.0301 115.499 90.5819C115.412 90.849 115.243 90.7675 115.037 90.7163C113.532 90.3422 113.474 90.2378 114.111 88.8156C114.196 88.5208 114.368 88.2589 114.606 88.0646C114.743 87.9682 114.904 87.9119 115.072 87.902C115.239 87.8921 115.406 87.9289 115.554 88.0085C115.708 88.0981 115.834 88.2297 115.917 88.3879C115.999 88.5461 116.035 88.7246 116.021 88.9025Z" fill="#242A6B"/>
<path d="M27.0853 77.5553C27.4765 77.5177 27.726 77.4858 27.7368 77.67C27.7794 78.3964 28.1648 79.1202 27.7804 79.8549C27.7101 80.0066 27.596 80.1339 27.4527 80.2202C27.3094 80.3064 27.1436 80.3478 26.9766 80.3389C26.8088 80.3325 26.6467 80.2762 26.511 80.1774C26.3752 80.0786 26.2719 79.9416 26.2142 79.7839C26.0172 79.2379 25.8975 78.667 25.8586 78.0879C25.8284 77.8353 25.9319 77.7438 26.1666 77.7114C26.5487 77.6585 26.9276 77.5827 27.0853 77.5553Z" fill="#242A6B"/>
<path d="M117.731 82.534C117.713 82.6213 117.687 82.728 117.669 82.836C117.449 84.1583 117.112 84.3479 115.866 83.8392C115.768 83.8066 115.683 83.7433 115.624 83.6586C115.442 83.303 115.999 81.5915 116.353 81.3865C116.494 81.297 116.659 81.2516 116.826 81.2562C116.993 81.2608 117.155 81.3152 117.291 81.4124C117.678 81.673 117.725 82.0873 117.731 82.534Z" fill="#242A6B"/>
<path d="M71.3626 43.6172C71.8935 43.7122 72.4957 43.7707 72.4026 44.5061C72.3089 45.2473 71.6912 45.3565 71.0913 45.3251C70.5572 45.2972 70.0809 45.053 70.1417 44.4235C70.2108 43.7094 70.7896 43.6311 71.3626 43.6172Z" fill="#FBFDFE"/>
</svg>
